<?xml version="1.0" encoding="utf-8"?>
<!-- Generator: Adobe Illustrator 24.3.0, SVG Export Plug-In . SVG Version: 6.00 Build 0)  -->
<svg version="1.1" id="Layer_1" xmlns="http://www.w3.org/2000/svg" xmlns:xlink="http://www.w3.org/1999/xlink" x="0px" y="0px"
	 viewBox="0 0 600 600" style="enable-background:new 0 0 600 600;" xml:space="preserve">
<style type="text/css">
	.st0{fill:#FFFFFF;}
	.st1{fill:#FF4672;}
	.st2{opacity:0.4;}
	.st3{fill:#353535;}
	.st4{opacity:0.31;}
	.st5{fill:none;}
	.st6{fill:#4F4F4F;}
	.st7{fill:#FCFCFC;}
</style>
<g>
	<g>
		<path d="M276.36,296.43c0,1.23-0.25,2.3-0.76,3.21c-0.51,0.91-1.2,1.67-2.09,2.27c-0.88,0.6-1.91,1.06-3.09,1.37
			c-1.18,0.31-2.42,0.46-3.74,0.46h-13.89v-28.51h15.86c0.99,0,1.89,0.21,2.69,0.64c0.8,0.43,1.49,0.98,2.05,1.67
			c0.56,0.68,1,1.46,1.3,2.33c0.31,0.87,0.46,1.76,0.46,2.67c0,1.37-0.34,2.65-1.02,3.85c-0.68,1.2-1.71,2.12-3.07,2.73
			c1.63,0.48,2.92,1.34,3.88,2.57C275.89,292.92,276.36,294.5,276.36,296.43z M259.38,280.85v5.9h6.47c0.72,0,1.37-0.24,1.93-0.72
			c0.56-0.48,0.84-1.23,0.84-2.25c0-0.94-0.25-1.66-0.74-2.17c-0.5-0.51-1.09-0.76-1.79-0.76H259.38z M269.66,295.1
			c0-0.88-0.25-1.63-0.76-2.25c-0.51-0.62-1.15-0.92-1.93-0.92h-7.59v6.22h7.31c0.86,0,1.57-0.28,2.13-0.84
			C269.37,296.75,269.66,296.01,269.66,295.1z"/>
		<path d="M299.89,297.96v5.78h-20.04v-28.51h19.68v5.78h-13.09v5.54h11.24v5.34h-11.24v6.06H299.89z"/>
		<path d="M325.23,281.01h-8.67v22.73h-6.59v-22.73h-8.71v-5.78h23.97V281.01z"/>
		<path d="M349.77,281.01h-8.67v22.73h-6.59v-22.73h-8.71v-5.78h23.97V281.01z"/>
		<path d="M372.62,297.96v5.78h-20.04v-28.51h19.68v5.78h-13.09v5.54h11.24v5.34h-11.24v6.06H372.62z"/>
		<path d="M376.23,303.74v-28.51h12.85c1.34,0,2.58,0.28,3.71,0.84s2.12,1.3,2.95,2.21c0.83,0.91,1.48,1.94,1.95,3.09
			c0.47,1.15,0.7,2.32,0.7,3.49c0,0.88-0.11,1.73-0.32,2.55c-0.21,0.82-0.52,1.59-0.92,2.31c-0.4,0.72-0.89,1.37-1.46,1.95
			c-0.58,0.58-1.22,1.06-1.95,1.47l6.26,10.6h-7.43l-5.46-9.2h-4.3v9.2H376.23z M382.82,288.8h6.02c0.78,0,1.45-0.37,2.01-1.1
			s0.84-1.68,0.84-2.83c0-1.18-0.32-2.11-0.96-2.81c-0.64-0.7-1.34-1.04-2.09-1.04h-5.82V288.8z"/>
		<path d="M431.28,300.93c-2.17,2.01-4.67,3.01-7.51,3.01c-1.87,0-3.64-0.35-5.3-1.06c-1.66-0.71-3.11-1.71-4.36-2.99
			c-1.24-1.28-2.23-2.83-2.95-4.64c-0.72-1.81-1.08-3.79-1.08-5.96c0-1.95,0.36-3.8,1.08-5.54c0.72-1.74,1.72-3.25,2.99-4.54
			c1.27-1.28,2.78-2.3,4.52-3.05c1.74-0.75,3.61-1.12,5.62-1.12c2.65,0,4.97,0.56,6.95,1.67c1.98,1.11,3.47,2.63,4.46,4.56
			l-4.9,3.69c-0.64-1.28-1.57-2.28-2.79-2.99c-1.22-0.71-2.54-1.06-3.95-1.06c-1.1,0-2.1,0.22-2.99,0.66
			c-0.9,0.44-1.67,1.06-2.31,1.85c-0.64,0.79-1.14,1.71-1.49,2.75c-0.35,1.04-0.52,2.17-0.52,3.37c0,1.23,0.19,2.37,0.56,3.41
			c0.37,1.04,0.9,1.95,1.57,2.71c0.67,0.76,1.47,1.36,2.39,1.79c0.92,0.43,1.95,0.64,3.07,0.64c2.57,0,4.89-1.19,6.95-3.57v-0.88
			h-5.54v-4.78h11v14.9h-5.46V300.93z"/>
		<path d="M452.93,298.12c1.12,0,2.07-0.23,2.85-0.7c0.78-0.47,1.41-1.09,1.89-1.87c0.48-0.78,0.82-1.67,1.02-2.67
			s0.3-2.03,0.3-3.07v-14.58h6.59v14.58c0,1.98-0.25,3.83-0.74,5.54c-0.49,1.71-1.26,3.21-2.29,4.5s-2.34,2.3-3.94,3.03
			c-1.59,0.74-3.49,1.11-5.68,1.11c-2.28,0-4.22-0.39-5.82-1.17c-1.61-0.78-2.91-1.81-3.92-3.11c-1-1.3-1.74-2.8-2.21-4.52
			c-0.47-1.71-0.7-3.51-0.7-5.38v-14.58h6.59v14.58c0,1.1,0.11,2.14,0.32,3.13c0.21,0.99,0.56,1.87,1.04,2.65
			c0.48,0.78,1.11,1.39,1.87,1.85C450.86,297.89,451.8,298.12,452.93,298.12z"/>
		<path d="M492,281.01h-8.67v22.73h-6.59v-22.73h-8.71v-5.78H492V281.01z"/>
		<path d="M252.79,344.43v-28.51h10.64c2.36,0,4.42,0.37,6.18,1.12c1.77,0.75,3.25,1.77,4.44,3.05c1.19,1.28,2.09,2.79,2.69,4.52
			c0.6,1.73,0.9,3.57,0.9,5.52c0,2.17-0.34,4.13-1,5.88c-0.67,1.75-1.63,3.25-2.87,4.5c-1.24,1.24-2.74,2.21-4.5,2.89
			c-1.75,0.68-3.7,1.02-5.84,1.02H252.79z M270.94,330.14c0-1.26-0.17-2.4-0.5-3.43c-0.33-1.03-0.82-1.92-1.47-2.67
			c-0.64-0.75-1.43-1.33-2.37-1.73c-0.94-0.4-1.99-0.6-3.17-0.6h-4.06v16.95h4.06c1.2,0,2.27-0.21,3.21-0.64
			c0.94-0.43,1.72-1.02,2.35-1.79c0.63-0.76,1.11-1.66,1.45-2.69C270.77,332.5,270.94,331.37,270.94,330.14z"/>
		<path d="M281.14,344.43v-28.51h6.59v28.51H281.14z"/>
		<path d="M312.38,341.62c-2.17,2.01-4.67,3.01-7.51,3.01c-1.87,0-3.64-0.35-5.3-1.06c-1.66-0.71-3.11-1.71-4.36-2.99
			c-1.24-1.28-2.23-2.83-2.95-4.64c-0.72-1.81-1.08-3.79-1.08-5.96c0-1.95,0.36-3.8,1.08-5.54c0.72-1.74,1.72-3.25,2.99-4.54
			c1.27-1.28,2.78-2.3,4.52-3.05c1.74-0.75,3.61-1.12,5.62-1.12c2.65,0,4.97,0.56,6.95,1.67c1.98,1.11,3.47,2.63,4.46,4.56
			l-4.9,3.69c-0.64-1.29-1.57-2.28-2.79-2.99c-1.22-0.71-2.54-1.06-3.95-1.06c-1.1,0-2.1,0.22-2.99,0.66
			c-0.9,0.44-1.67,1.06-2.31,1.85c-0.64,0.79-1.14,1.71-1.49,2.75c-0.35,1.04-0.52,2.17-0.52,3.37c0,1.23,0.19,2.37,0.56,3.41
			c0.37,1.04,0.9,1.95,1.57,2.71s1.47,1.36,2.39,1.79c0.92,0.43,1.95,0.64,3.07,0.64c2.57,0,4.89-1.19,6.95-3.57v-0.88h-5.54v-4.78
			h11v14.9h-5.46V341.62z"/>
		<path d="M341.82,338.65v5.78h-20.04v-28.51h19.68v5.78h-13.09v5.54h11.24v5.34h-11.24v6.06H341.82z"/>
		<path d="M361.93,324.28c-0.08-0.11-0.36-0.31-0.84-0.6c-0.48-0.29-1.08-0.6-1.81-0.92c-0.72-0.32-1.51-0.6-2.37-0.84
			c-0.86-0.24-1.71-0.36-2.57-0.36c-2.36,0-3.53,0.79-3.53,2.37c0,0.48,0.13,0.88,0.38,1.2c0.25,0.32,0.63,0.61,1.12,0.86
			c0.5,0.25,1.12,0.49,1.87,0.7c0.75,0.22,1.62,0.46,2.61,0.72c1.37,0.38,2.6,0.78,3.69,1.22c1.1,0.44,2.03,0.99,2.79,1.65
			c0.76,0.66,1.35,1.45,1.77,2.39c0.41,0.94,0.62,2.06,0.62,3.37c0,1.61-0.3,2.96-0.9,4.08c-0.6,1.11-1.4,2.01-2.39,2.69
			c-0.99,0.68-2.13,1.18-3.41,1.49s-2.61,0.46-3.98,0.46c-1.04,0-2.12-0.08-3.21-0.24c-1.1-0.16-2.17-0.39-3.21-0.7
			c-1.04-0.31-2.06-0.68-3.03-1.11c-0.98-0.43-1.88-0.92-2.71-1.49l2.89-5.74c0.11,0.13,0.45,0.39,1.04,0.76
			c0.59,0.38,1.32,0.75,2.19,1.12c0.87,0.38,1.84,0.71,2.91,1c1.07,0.3,2.15,0.44,3.25,0.44c2.33,0,3.49-0.71,3.49-2.13
			c0-0.54-0.17-0.98-0.52-1.32c-0.35-0.35-0.83-0.66-1.45-0.94c-0.62-0.28-1.35-0.54-2.19-0.78c-0.84-0.24-1.76-0.51-2.75-0.8
			c-1.31-0.4-2.45-0.84-3.41-1.3c-0.96-0.47-1.76-1.01-2.39-1.63c-0.63-0.62-1.1-1.33-1.41-2.13c-0.31-0.8-0.46-1.74-0.46-2.81
			c0-1.5,0.28-2.82,0.84-3.97s1.33-2.12,2.29-2.91c0.96-0.79,2.08-1.38,3.35-1.79c1.27-0.4,2.62-0.6,4.03-0.6
			c0.99,0,1.97,0.09,2.93,0.28c0.96,0.19,1.89,0.43,2.77,0.72c0.88,0.3,1.71,0.63,2.47,1c0.76,0.38,1.46,0.75,2.11,1.12
			L361.93,324.28z"/>
		<path d="M390.65,321.71h-8.67v22.73h-6.59v-22.73h-8.71v-5.78h23.97V321.71z"/>
	</g>
	<g>
		<path d="M147.86,281.72c-0.49-0.31-0.95-0.68-1.42-1.04C146.9,281.06,147.37,281.42,147.86,281.72z"/>
		<path d="M170.41,255.04c-0.28-0.1-0.59-0.11-0.91-0.11C169.81,254.93,170.13,254.95,170.41,255.04c1.2,0.42,2.38,0.31,3.56,0.15
			C172.79,255.35,171.61,255.46,170.41,255.04z"/>
		<path d="M168.43,254.54c-1.12-0.11-2.24-0.22-3.37-0.32c-1.86-0.16-3.72-0.23-5.58-0.25c1.87,0.03,3.73,0.1,5.59,0.25
			C166.19,254.32,167.31,254.43,168.43,254.54z"/>
		<path d="M156.69,254.26c-0.59,0.08-1.17,0.22-1.76,0.34C155.52,254.49,156.1,254.35,156.69,254.26z"/>
		<path d="M174.42,255.14c-1-0.1-2-0.2-2.99-0.3C172.42,254.94,173.42,255.04,174.42,255.14
			C174.41,255.14,174.42,255.14,174.42,255.14z"/>
		<path d="M159.99,254.31c-0.09-0.01-0.18,0-0.27,0.01C159.8,254.32,159.9,254.31,159.99,254.31c2.84,0.2,5.7,0.41,8.54,0.63
			c0.12,0.01,0.24,0,0.36,0c-0.12,0-0.24,0-0.36-0.01C165.68,254.73,162.83,254.51,159.99,254.31z"/>
		<path d="M154.74,254.65c-0.01,0-0.01,0-0.02,0c1.31,0.02,2.59-0.13,3.88-0.25c0.14-0.02,0.28-0.03,0.42-0.05
			c-0.14,0.02-0.28,0.03-0.42,0.04C157.32,254.53,156.05,254.67,154.74,254.65z"/>
		<path d="M157.82,259.13c-0.54,0.19-1.07,0.38-1.61,0.56c-0.25,0.09-0.48,0.2-0.72,0.32c0.24-0.11,0.48-0.23,0.73-0.32
			C156.75,259.5,157.29,259.31,157.82,259.13z"/>
		<path d="M154.24,260.76c-0.02-0.04-0.04-0.08-0.06-0.13c0,0,0,0,0,0C154.2,260.68,154.22,260.72,154.24,260.76z"/>
		<path d="M125.86,265.9c-0.25-0.16-0.43-0.29-0.59-0.41C125.43,265.62,125.61,265.73,125.86,265.9z"/>
		<path d="M173.86,256.15c-0.33,0.08-0.66,0.14-0.99,0.15c-0.64,0.03-1.27,0.1-1.9,0.15c0.63-0.05,1.26-0.11,1.9-0.14
			C173.2,256.3,173.53,256.23,173.86,256.15z"/>
		<path d="M168.56,256.73c-0.61,0.09-1.22,0.16-1.83,0.27c-0.65,0.14-1.31,0.23-1.97,0.34c0.66-0.1,1.31-0.2,1.97-0.33
			C167.33,256.89,167.94,256.82,168.56,256.73z"/>
		<path d="M165.67,257.51c1-0.17,1.99-0.34,2.99-0.46c0.16-0.02,0.33-0.03,0.49-0.05c-0.16,0.02-0.33,0.03-0.49,0.05
			C167.67,257.17,166.67,257.33,165.67,257.51z"/>
		<path d="M154.29,260.85c0.38-0.16,0.76-0.3,1.14-0.46C155.05,260.55,154.67,260.7,154.29,260.85
			C154.29,260.85,154.29,260.85,154.29,260.85z"/>
		<path d="M171.91,256.73c0.57-0.05,1.15-0.09,1.72-0.17c1.51-0.23,2.98-0.63,4.47-0.95c0,0,0,0,0,0c-1.49,0.32-2.96,0.72-4.47,0.95
			C173.06,256.64,172.49,256.68,171.91,256.73z"/>
		<path d="M178.07,255.38C178.07,255.38,178.07,255.38,178.07,255.38C178.07,255.38,178.07,255.38,178.07,255.38
			c-0.83-0.13-1.62,0-2.41,0.23c-0.17,0.05-0.33,0.11-0.5,0.16c0.17-0.05,0.33-0.11,0.5-0.16
			C176.45,255.37,177.25,255.25,178.07,255.38z"/>
		<path d="M157.07,254.21c0.59-0.09,1.18-0.16,1.78-0.2C158.25,254.04,157.66,254.12,157.07,254.21z"/>
		<path d="M226.83,226.42c-2.55,0.18-5.09,0.49-7.64,0.79C221.72,226.89,224.27,226.6,226.83,226.42z"/>
		<path d="M207.65,245.54c-0.16,0.14-0.33,0.28-0.5,0.43C207.32,245.83,207.49,245.68,207.65,245.54
			C207.65,245.55,207.65,245.54,207.65,245.54z"/>
		<path d="M212.66,242.4c-0.04,0.01-0.08,0.02-0.12,0.04C212.58,242.42,212.62,242.41,212.66,242.4c0.01,0.06,0.02,0.11,0.04,0.16
			c-0.02,0.01-0.04,0.01-0.06,0.02c0.02-0.01,0.04-0.01,0.06-0.02C212.68,242.5,212.66,242.45,212.66,242.4z"/>
		<path d="M212.32,242.67C212.32,242.67,212.32,242.67,212.32,242.67c0-0.03-0.01-0.06-0.02-0.08
			C212.31,242.61,212.31,242.64,212.32,242.67z"/>
		<path d="M286.84,188.08c-0.66-0.13-0.97-0.54-0.81-1.13C285.88,187.56,286.19,187.96,286.84,188.08z"/>
		<path d="M187.59,253.86c-0.22,0.05-0.49,0.02-0.76-0.09C187.11,253.88,187.36,253.9,187.59,253.86z"/>
		<path d="M194.64,228.22c-0.45,0.72-0.81,1.46-1.13,2.23C193.81,229.67,194.19,228.94,194.64,228.22z"/>
		<path d="M229.81,227.26c-0.54,0-1.08,0-1.6,0.02c-0.81,0-1.62,0-2.43,0.02C227.13,227.28,228.46,227.28,229.81,227.26z"/>
		<path d="M195,227.89v0.02c-0.05,0.04-0.09,0.05-0.13,0.09C194.91,227.97,194.96,227.93,195,227.89z"/>
		<polygon points="203.41,249.19 203.4,249.2 203.41,249.19 		"/>
		<path d="M203.57,249.3c0,0-0.01-0.01-0.01-0.01C203.56,249.29,203.57,249.3,203.57,249.3C203.57,249.3,203.57,249.3,203.57,249.3z
			"/>
		<path d="M203.23,249.59c0.03,0.02,0.06,0.04,0.09,0.07c0.06-0.08,0.11-0.16,0.16-0.23c-0.06,0.07-0.11,0.15-0.17,0.22
			C203.29,249.63,203.26,249.61,203.23,249.59z"/>
		<path d="M206.18,246.8c0.59-0.12,0.95-0.36,1.23-0.65c-0.28,0.28-0.63,0.52-1.21,0.63C206.19,246.79,206.18,246.8,206.18,246.8z"
			/>
		<path d="M193.51,230.45c0.32-0.77,0.68-1.51,1.13-2.23C194.19,228.94,193.81,229.67,193.51,230.45z"/>
		<path d="M298.77,181.49c-0.27-1.51-1.1-2.43-2.43-2.71c-1.53-0.32-3.05-0.23-4.53,0.29c-1.13,0.41-2.16,1.01-3.22,1.56
			c-2.5,1.31-4.74,3-6.88,4.78c-4.03,3.34-7.76,6.99-11.43,10.73c-3,3.07-5.95,6.2-8.9,9.31c-2.03,2.12-4.03,4.28-6.02,6.42
			c-2.03,2.19-4.04,4.42-6.08,6.61c-0.65,0.68-1.28,1.37-1.92,2.03c-1.47,1.49-3.02,2.93-4.42,4.49c-0.7,0.77-1.42,0.95-2.39,0.77
			c-2.39-0.47-4.82-0.66-7.26-0.74c-4.4-0.13-8.79,0.23-13.16,0.68c-2.35,0.25-4.71,0.54-7.05,0.9c-2.39,0.36-4.78,0.83-7.17,1.28
			c-1.04,0.2-2.07,0.49-3.11,0.68c-1.8,0.34-3.59,0.66-5.34,1.2c-0.5,0.16-1.06,0.22-1.58,0.27c-0.36,0.05-0.59-0.18-0.54-0.54
			c0.09-0.68,0.11-1.42,0.38-2.05c0.5-1.19,1.08-2.34,1.98-3.32c0.7-0.77,1.4-1.49,2.25-2.1c1.11-0.81,1.89-1.94,2.8-2.95
			c0.9-0.97,1.37-2.12,1.6-3.38c0.14-0.79,0.25-1.6,0.38-2.39c0.23,0.38,0.38,0.74,0.43,1.13c0.18,1.58,0.4,3.16-0.39,4.69
			c-0.59,1.15-1.1,2.34-1.64,3.52c-0.02,0.04,0.02,0.11,0.07,0.31c0.23-0.25,0.43-0.45,0.63-0.66c0.84-0.9,1.38-1.99,1.91-3.11
			c1.28-2.75,0.81-5.34-0.63-7.82c-0.32-0.56-0.85-1.02-1.33-1.46c-0.25-0.23-0.61-0.45-1.01-0.11c0,0.09-0.04,0.2,0,0.27
			c0.23,0.81,0.59,1.58,0.7,2.39c0.13,0.88,0.16,1.8,0,2.66c-0.4,2.26-1.8,3.88-3.47,5.34c-0.97,0.86-1.9,1.76-2.79,2.71
			c-1.67,1.85-2.88,3.99-3.68,6.34c-0.27,0.81-0.77,1.35-1.69,1.51c-0.77,0.13-1.53,0.34-2.28,0.56c-0.23,1.26-0.58,2.53-1.11,3.77
			c-1.37,3.24-3.2,5.57-5.14,8.05l-2.19,2.8l-0.11-2.19c-0.09-1.91,0.07-3.76,0.22-5.54c0.13-1.62,0.27-3.16,0.18-4.53
			c0-0.09-0.02-0.18-0.02-0.27c-0.34,0.16-2.86,0.79-3.13,0.88c-0.75,0.25-1.53,0.49-2.3,0.74c-2.71,0.88-5.43,1.76-8.12,2.7
			c-0.65,0.23-1.17,0.27-1.67-0.16c-0.68-0.58-1.35-1.19-2.03-1.76c-2-1.76-3.54-3.86-4.69-6.25c-0.59-1.22-1.28-2.41-1.42-3.83
			c-0.04-0.56-0.34-1.1-0.57-1.8c-0.18,0.27-0.32,0.41-0.36,0.58c-0.13,0.68-0.31,1.38-0.27,2.07c0.07,1.49,0.23,2.98,0.41,4.48
			c0.31,2.41,1.37,4.49,2.88,6.38c0.36,0.47,0.81,0.88,1.19,1.35c0.56,0.7,0.49,1.01-0.31,1.35c-0.86,0.36-1.74,0.66-2.59,1.02
			c-3.43,1.47-6.87,2.93-10.28,4.4c-1.01,0.43-1.26,0.36-1.98-0.47c-0.63-0.72-1.29-1.44-2.01-2.08c-1.56-1.42-3.43-2.41-5.28-3.36
			c-2.43-1.26-4.04-3.09-4.67-5.77c-0.05-0.25-0.14-0.52-0.27-0.75c-0.23-0.41-0.34-1.02-0.93-1.08c-0.65-0.05-0.88,0.52-1.17,0.95
			c-0.9,1.44-1.11,3.02-1.06,4.71c0.07,1.89,0.81,3.47,1.94,4.92c1.46,1.85,3.59,2.7,5.66,3.63c0.93,0.41,1.91,0.77,2.8,1.26
			c0.68,0.38,0.61,0.74-0.07,1.15c-1.65,0.99-3.5,1.58-5.12,2.66c-1.71,1.15-3.61,2-5.3,3.16c-2.46,1.71-4.82,3.56-7.17,5.39
			c-1.11,0.88-2.03,1.92-2.66,3.22c-0.4,0.79-0.5,1.53-0.2,2.39c0.86,2.53,2,4.92,3.5,7.15c1.49,2.21,3.06,4.37,4.85,6.33
			c0,0,0.13,0.13,0.36,0.38c3.52,3.5,32.93,30.05,88.73,1.58c2.26-1.22,4.31-2.52,6.18-3.83c0.02-0.02,0.02-0.02,0.02-0.02
			c0.16-0.16,0.25-0.29,0.38-0.38c1.13-0.86,2.34-1.65,3.38-2.62c1.37-1.28,2.84-2.41,4.22-3.67l0.32-0.32
			c3.67-3.72,6.09-7.24,7.64-9.97c0.13-0.22,0.25-0.43,0.36-0.65c0.81-1.53,1.51-3.09,2.12-4.71c0.02-0.05,0.02-0.07,0.02-0.07
			c1.11-3.04,2.07-6.13,2.48-9.35c0.31-2.23,0.43-4.49,0.56-6.76c0.05-0.9,0.38-1.49,1.1-1.98c1.92-1.28,3.81-2.59,5.7-3.9
			c2.41-1.67,2.39-1.71,3.11-4.48c0.4-1.51,0.95-2.97,1.82-4.3c1.17-1.83,2.91-3.09,4.28-4.73c0.92-1.11,2.12-2.01,3.18-3.04
			c1.51-1.44,2.98-2.95,4.53-4.35c2.16-1.99,4.35-3.94,6.54-5.88c2.53-2.21,5.07-4.42,7.64-6.6c2.19-1.87,4.49-3.65,6.65-5.57
			c1.89-1.67,3.68-3.47,5.43-5.3c0.86-0.9,1.6-1.96,2.26-3.02C298.77,184.44,299.04,183.02,298.77,181.49z M204.23,229.49h0.5v0.07
			h-0.5V229.49z M192.46,239.04c0.07-2.01-0.05-4.04,0.31-6.04c0-0.05,0.02-0.11,0.04-0.16c0.16-0.83,0.39-1.64,0.7-2.39
			c0.31-0.77,0.68-1.51,1.13-2.23c0.04-0.05,0.07-0.09,0.13-0.13c0.02,0,0.02-0.02,0.02-0.02c0.04-0.02,0.05-0.04,0.09-0.07
			c0.04-0.04,0.09-0.07,0.13-0.11v0.02c-0.04,0.66-0.14,1.29-0.25,1.92c-0.07,0.4-0.16,0.79-0.25,1.19
			c-0.14,0.58-0.31,1.13-0.47,1.69c-0.04,0.14-0.09,0.29-0.13,0.43c-0.21,0.72-0.21,1.51-0.32,2.26c-0.11,0.79-0.21,1.58-0.34,2.37
			c-0.05,0.41-0.13,0.84-0.18,1.26c-0.05,0.31-0.18,0.59-0.47,0.9c-0.02-0.07-0.04-0.13-0.05-0.2c-0.04-0.13-0.07-0.25-0.07-0.38
			V239.04z M187.88,249.21c0.5-0.68,1.13-1.29,1.8-1.89c0.61-0.54,1.47-0.86,2.39-1.01c1.15-0.18,2.39-0.04,3.33,0.47
			c-0.34,0.32-0.68,0.61-1.01,0.92c-0.04,0.02-0.07,0.05-0.11,0.09c-0.74,0.66-1.49,1.31-2.21,2.01c-0.49,0.49-0.97,0.97-1.46,1.46
			c-0.74,0.72-1.49,1.46-2.21,2.19c-0.22,0.22-0.41,0.34-0.65,0.4c-0.05,0.02-0.11,0.04-0.16,0.02c-0.22,0.05-0.49,0.02-0.76-0.09
			c-0.11-0.45-0.16-0.9-0.16-1.29C186.68,251.2,187.16,250.14,187.88,249.21z M181.25,253.86c0.22-0.7,0.38-1.26,0.56-1.76
			c0.04-0.07,0.05-0.14,0.07-0.2c0.04-0.09,0.11-0.16,0.22-0.22c0-0.02,0-0.02,0-0.02c0.07-0.04,0.14-0.05,0.2-0.07
			c0.05-0.02,0.09-0.05,0.13-0.05c0,0,0,0,0.02,0c0.13-0.04,0.29-0.04,0.45-0.02h0.05c0.04,0,0.09,0,0.13,0.02
			c0.38,0.04,0.77,0.16,1.17,0.34c0.4,0.18,0.75,0.43,1.1,0.72c0.41,0.36,0.76,0.79,0.93,1.24c-1.71,0.61-3.29-0.2-5.03,0.11
			C181.25,253.92,181.25,253.9,181.25,253.86z M161.03,237.78c-0.09-0.13-0.2-0.25-0.27-0.38c-0.57-0.93-1.15-1.87-1.64-2.86
			c-0.47-0.95-0.84-1.94-1.02-3c-0.02-0.05-0.04-0.11-0.04-0.16c-0.07-0.23-0.16-0.47-0.2-0.7c-0.04-0.2-0.02-0.41-0.02-0.61v-0.13
			h0.07c0.04-0.02,0.05-0.02,0.09-0.02c0.41,0.68,0.83,1.4,1.28,2.08c0.54,0.83,1.01,1.74,1.69,2.46c0.32,0.34,0.63,0.68,0.93,1.02
			c0.32,0.34,0.63,0.7,0.95,1.02c0.67,0.66,1.35,1.29,2.16,1.78c0.43,0.27,0.9,0.52,1.42,0.7c0.23,0.07,0.43,0.2,0.65,0.32
			c0.41,0.27,0.83,0.59,1.28,0.86c0,0,0.02,0,0.04,0.02c2.25,1.22,4.55,2.35,6.92,3.29c0.57,0.23,1.13,0.59,1.6,0.99
			c0.22,0.18,0.45,0.36,0.67,0.54c0.54,0.43,1.08,0.86,1.55,1.37c0.22,0.23,0.43,0.49,0.61,0.75c0.16,0.22,0.29,0.43,0.43,0.66
			c0.22,0.38,0.41,0.75,0.5,1.19c0.04,0.22,0.07,0.43,0.11,0.66c0.2,1.11,0.29,2.25,0.13,3.4c0,0.09-0.04,0.2-0.09,0.31
			c-0.04,0.07-0.05,0.14-0.09,0.23c-0.04-0.05-0.05-0.07-0.09-0.11c-0.07-0.09-0.14-0.18-0.16-0.23c-0.02-0.02-0.04-0.04-0.04-0.05
			c-0.56-1.44-1.35-2.62-2.32-3.65c-1.11-1.15-2.46-2.08-4.01-2.8c-1.62-0.75-3.33-1.35-4.98-2.05c-0.18-0.07-0.34-0.18-0.5-0.31
			c-0.05-0.02-0.11-0.05-0.16-0.09c-0.14-0.11-0.29-0.2-0.43-0.29c-0.83-0.5-1.69-0.93-2.46-1.53c-0.31-0.23-0.58-0.5-0.86-0.75
			c-0.13-0.14-0.29-0.25-0.43-0.4c-0.32-0.31-0.65-0.63-0.99-0.9C162.36,239.68,161.64,238.75,161.03,237.78z M180.19,253.99
			c-0.54,0.14-2.66,0.04-4.1-0.13c-0.54-0.07-0.99-0.14-1.22-0.22c0.09-0.09,0.16-0.18,0.23-0.27c0.16-0.22,0.32-0.4,0.52-0.49
			c0.05-0.02,0.11-0.04,0.14-0.05c0.83-0.34,1.65-0.66,2.5-0.92c0.05-0.02,0.09-0.04,0.14-0.05c0.04-0.02,0.09-0.02,0.13-0.02
			c0.02,0,0.05,0,0.07,0.02h0.09c0.02,0.02,0.04,0.02,0.05,0.02s0.04,0.02,0.05,0.02c0.04,0.02,0.07,0.02,0.13,0.04
			c0.02,0.02,0.04,0.02,0.05,0.04c0.11,0.05,0.2,0.11,0.25,0.18l0.02,0.02c0.14,0.2,0.25,0.41,0.36,0.63
			C179.79,253.18,179.99,253.56,180.19,253.99z M140.42,246.49c-0.4-0.18-0.81-0.36-1.22-0.54c-1.33-0.56-2.66-1.13-3.88-1.96
			c-0.45-0.29-0.86-0.63-1.24-0.97c-0.63-0.61-1.1-1.31-1.46-2.08c-0.27-0.59-0.5-1.22-0.59-1.92c-0.09-0.5-0.13-1.01-0.22-1.49
			c-0.11-0.58-0.04-1.11,0.09-1.64c0.2-0.75,0.56-1.47,1.01-2.26c0.13,0.31,0.25,0.58,0.36,0.83c0.13,0.29,0.23,0.56,0.31,0.84
			c0.18,0.63,0.41,1.2,0.72,1.74c0.36,0.59,0.79,1.17,1.33,1.69c0.49,0.45,0.99,0.84,1.53,1.2c1.24,0.86,2.61,1.55,3.94,2.25
			c0,0,0,0,0.02,0c1.42,0.75,2.73,1.67,3.79,2.86c1.06,1.17,2.16,2.34,2.71,3.88c0.34,0.95,0.61,1.91,0.38,2.93
			c-0.04,0.18-0.14,0.34-0.32,0.77c-0.04-0.05-0.07-0.07-0.11-0.13c-0.32-0.36-0.57-0.63-0.75-0.9c-1.1-1.55-2.43-2.77-3.94-3.76
			C142.09,247.34,141.3,246.87,140.42,246.49z M142.37,257.85c1.51-1.64,3.29-2.89,5.07-4.15c1.2-0.88,2.68-1.29,4.17-1.53
			c4.12-0.66,8.25-0.45,12.35,0.18c2.23,0.36,4.44,0.84,6.65,1.26c2.3,0.43,4.58,0.88,6.88,1.22c0.86,0.13,1.78-0.07,2.68-0.07
			c1.33,0,2.66,0.02,3.99,0.04c0.7,0.02,1.4,0.05,2.09,0.13c0.79,0.09,1.58,0.2,2.37,0.34c0.27,0.05,0.52,0.23,1.02,0.45
			c-0.47,0.23-0.7,0.38-0.95,0.47c-1.33,0.4-2.68,0.77-4.03,1.15c-1.44,0.4-2.89,0.77-4.33,1.15c-2.03,0.56-4.04,1.13-6.07,1.62
			c-2.3,0.58-4.6,1.1-6.92,1.56c-3.83,0.75-7.62,1.62-11.48,2.08c-1.99,0.25-3.94,0.66-5.91,0.92c-2.52,0.34-5.03,0.63-7.55,0.9
			c-1.38,0.14-2.79,0.25-4.19,0.34c-0.41,0.04-0.83-0.04-1.51-0.07c0.43-0.83,0.68-1.44,1.04-1.98
			C139.16,261.77,140.63,259.72,142.37,257.85z M130.75,256.83c-0.5,0.32-1.01,0.65-1.51,0.99c-0.07,0.05-0.16,0.11-0.25,0.16
			c-0.02,0.02-0.05,0.04-0.09,0.05c-0.36,0.41-0.75,0.79-1.15,1.19c-0.77,0.74-1.56,1.46-2.26,2.26c-0.34,0.41-0.67,0.83-0.95,1.29
			c-0.23,0.41-0.31,0.88-0.22,1.35c0.05,0.25,0.14,0.49,0.29,0.7c0.13,0.22,0.31,0.41,0.52,0.58c0.04,0.04,0.09,0.05,0.14,0.09
			c0.16,0.13,0.34,0.23,0.59,0.41c-0.02,0.02-0.04,0.02-0.05,0.02c-0.7,0.36-1.47,0.4-2.16,0.22c0,0-0.02-0.02-0.04-0.02
			c-0.67-0.18-1.22-0.56-1.46-0.99c-0.04-0.07-0.07-0.16-0.11-0.23c-0.13-0.31-0.2-0.59-0.11-0.88c0.02-0.07,0.04-0.14,0.07-0.22
			c0.34-0.61,0.65-1.28,1.15-1.74c0.38-0.36,0.77-0.7,1.17-1.04c1.38-1.26,2.79-2.5,4.24-3.67c0.43-0.36,0.9-0.66,1.37-0.97
			c0.11-0.07,0.22-0.14,0.32-0.22c0.5-0.31,0.99-0.59,1.49-0.88c0.68-0.41,1.4-0.81,2.1-1.2c0.92-0.52,1.83-1.06,2.73-1.58
			c0.18-0.09,0.34-0.22,0.5-0.32c0.23-0.18,0.47-0.36,0.72-0.49c0.04-0.02,0.09-0.04,0.13-0.05c0.74-0.41,1.49-0.75,2.26-1.13
			c0.04-0.02,0.07-0.04,0.11-0.05c0.02,0.04,0.04,0.05,0.07,0.09c0.02,0.04,0.04,0.05,0.05,0.09c-0.16,0.14-0.32,0.34-0.52,0.43
			c-2.86,1.42-5.45,3.31-8.11,5.05C131.45,256.34,131.09,256.58,130.75,256.83z M148.09,283.25c-0.48-0.31-0.93-0.65-1.4-1.01
			c0,0,0,0,0-0.02c-0.47-0.34-0.92-0.72-1.38-1.06c-0.56-0.43-1.13-0.81-1.64-1.29c-0.72-0.68-1.42-1.4-2.1-2.1
			c-1.06-1.11-2.07-2.26-2.97-3.52c-0.84-1.19-1.67-2.37-2.5-3.59c-0.04-0.05-0.07-0.13-0.11-0.18c-0.18-0.31-0.32-0.63-0.49-0.95
			c0.16-0.16,0.34-0.23,0.5-0.31c0.16-0.05,0.32-0.09,0.47-0.13c0.16-0.02,0.32-0.02,0.49-0.04c2.03-0.14,4.04-0.25,6.07-0.41
			c1.2-0.09,2.39-0.2,3.58-0.34c0.09-0.02,0.18,0,0.27,0c0.38,0,0.7,0.11,0.95,0.36c0.02,0,0.02,0.02,0.04,0.02
			c0,0,0.02,0.02,0.02,0.04c0.11,0.09,0.2,0.22,0.29,0.36c1.69,2.77,3.67,5.28,5.9,7.57c0.41,0.4,0.83,0.81,1.24,1.19
			c0.67,0.63,1.33,1.26,2.05,1.83c1.08,0.88,2.21,1.69,3.38,2.44c0.68,0.47,1.38,0.92,2.14,1.33c1.64,0.88,3.32,1.67,5.01,2.44
			c0.47,0.2,0.97,0.38,1.62,0.65c-0.45,0.22-0.85,0.29-1.24,0.29c-0.16,0-0.31-0.02-0.47-0.04c-0.23-0.04-0.47-0.05-0.68-0.09
			c-1.65-0.18-3.31-0.38-4.92-0.72c-0.59-0.11-1.19-0.27-1.76-0.43c-0.83-0.23-1.65-0.47-2.46-0.74c-0.74-0.23-1.46-0.49-2.17-0.77
			c-0.72-0.29-1.42-0.59-2.12-0.9c-1.31-0.61-2.61-1.29-3.86-2.07c-1.08-0.65-2.19-1.26-3.24-1.96c-0.29-0.2-0.56-0.41-0.84-0.61
			c-1.37-1.02-2.64-2.16-3.83-3.38c-0.47-0.47-0.93-0.97-1.38-1.47c-0.7-0.75-1.37-1.51-2.05-2.28c-0.18,0.81,0.14,1.33,0.57,1.82
			c1.2,1.4,2.41,2.82,3.61,4.24c0.2,0.22,0.43,0.41,0.65,0.61c0.74,0.63,1.46,1.28,2.19,1.89c0.31,0.25,0.63,0.5,0.93,0.77
			c0.47,0.36,0.93,0.74,1.42,1.04c1.22,0.75,2.44,1.47,3.68,2.17c0.41,0.23,0.83,0.47,1.24,0.68c1.24,0.63,2.55,1.15,3.83,1.69
			c0.29,0.11,0.56,0.23,0.83,0.34c0.2,0.09,0.41,0.16,0.61,0.25c-0.02,0.07-0.04,0.14-0.05,0.22c-0.22-0.04-0.43-0.07-0.65-0.11
			c-0.41-0.05-0.83-0.13-1.2-0.25c-1.92-0.59-3.81-1.26-5.61-2.14C149.71,284.18,148.88,283.75,148.09,283.25z M227.45,271.44h-0.02
			c-0.18,0.18-0.36,0.36-0.57,0.5c-0.09,0.05-0.2,0.11-0.29,0.16c-0.9,0.56-1.82,1.06-2.73,1.58c-0.72,0.41-1.44,0.83-2.16,1.2
			c-0.31,0.16-0.63,0.32-0.93,0.49c-0.49,0.25-0.97,0.5-1.46,0.75c-0.27,0.13-0.52,0.27-0.79,0.41c-0.47,0.25-0.93,0.5-1.44,0.72
			c-1.73,0.77-3.47,1.51-5.21,2.26c-0.79,0.34-1.56,0.74-2.37,1.04c-0.54,0.22-1.1,0.41-1.65,0.63c-1.91,0.74-3.81,1.47-5.7,2.19
			c-0.47,0.18-0.95,0.31-1.44,0.43c-0.22,0.07-0.45,0.13-0.67,0.2c-0.2,0.07-0.41,0.13-0.61,0.18c-0.02,0-0.02,0-0.04,0
			c-0.61,0.14-1.24,0.27-1.78,0.66c-0.07,0.05-0.14,0.09-0.23,0.13c-0.02,0-0.02,0.02-0.04,0.02h-0.05
			c-0.29,0.09-0.63,0.09-0.92,0.18c-3.85,1.04-7.67,2.16-11.54,3.16c-1.02,0.27-2.07,0.45-3.13,0.61c-0.59,0.09-1.19,0.2-1.78,0.29
			c-1.82,0.31-3.63,0.56-5.45,0.81c-0.68,0.11-1.38,0.22-2.09,0.29c-0.59,0.09-1.19,0.16-1.78,0.18c-0.86,0.04-1.71,0.09-2.55,0.14
			c-0.84,0.05-1.69,0.13-2.55,0.16c-1.56,0.09-3.11,0.14-4.67,0.02c-2.41-0.16-4.8-0.34-7.21-0.52c-0.68-0.05-1.38-0.09-2.07-0.14
			c-0.22-0.02-0.43-0.11-0.65-0.32h1.01c0.25,0,0.52,0.02,0.77,0.02c0.45,0.02,0.88,0.05,1.33,0.05c0.58-0.02,1.13-0.04,1.71-0.05
			c1.26-0.04,2.53-0.07,3.79-0.05c1.55,0.04,3.09-0.04,4.64-0.13c0.59-0.05,1.19-0.09,1.76-0.14c1.64-0.13,3.25-0.31,4.87-0.47
			c0.66-0.07,1.31-0.14,1.98-0.25c0.84-0.13,1.67-0.25,2.5-0.4c1.44-0.27,2.86-0.54,4.3-0.79c1.11-0.18,2.23-0.36,3.33-0.59
			c0.72-0.14,1.44-0.32,2.14-0.5c0.25-0.07,0.52-0.13,0.77-0.18c1.46-0.36,2.91-0.68,4.37-1.08c0.18-0.05,0.36-0.11,0.54-0.16
			c1.85-0.5,3.72-1.02,5.55-1.58c0.2-0.07,0.41-0.13,0.61-0.18c2.07-0.67,4.1-1.38,6.13-2.08c0.32-0.11,0.63-0.22,0.95-0.32
			c0.22-0.07,0.45-0.16,0.68-0.23c1.35-0.45,2.7-0.9,4.03-1.38c1.2-0.43,2.37-0.92,3.54-1.4c1.56-0.66,3.11-1.35,4.65-2.01
			c1.71-0.75,3.43-1.46,5.12-2.25c1.24-0.59,2.48-1.22,3.7-1.83c0.57-0.29,1.15-0.59,1.73-0.88c0.18-0.07,0.34-0.14,0.5-0.22
			c0.04,0.04,0.05,0.07,0.07,0.11l0.02,0.02C227.8,271.06,227.63,271.26,227.45,271.44z M227.92,240.51
			c-0.72,0.47-1.44,0.95-2.21,1.33c-2.05,1.02-4.12,2.03-6.22,2.98c-1.42,0.63-2.89,1.17-4.33,1.76c-2.03,0.83-4.04,1.69-6.07,2.52
			c-0.95,0.4-1.92,0.75-2.89,1.11c-1.24,0.45-2.5,0.9-3.76,1.31c-3.63,1.2-7.26,2.39-10.91,3.58c-0.85,0.29-1.85-0.07-2.39-0.79
			c-0.23-0.32-0.23-0.58,0.07-0.86c1.31-1.2,2.62-2.41,3.92-3.65c1.01-0.95,2-1.92,3-2.88c0.27-0.25,0.57-0.47,0.86-0.68
			c0.72-0.59,1.46-1.17,2.19-1.74c0.14-0.13,0.29-0.27,0.47-0.36c1.19-0.66,2.37-1.31,3.56-1.96c0.2-0.11,0.36-0.25,0.54-0.38
			c-1.47,0.05-2.48,1.1-3.7,1.69c-1.19,0.58-2.19,1.51-3.47,2.43c0.13-0.34,0.13-0.45,0.18-0.5c1.83-2.23,3.76-4.33,6.29-5.79
			c1.11-0.65,2.19-1.35,3.45-1.74c1.47-0.49,2.97-0.83,4.51-0.77c1.8,0.04,3.58,0.25,5.3,0.81c1.08,0.34,2.14,0.74,3.16,1.2
			c0.54,0.25,1.06,0.36,1.64,0.31c0.56-0.05,1.13-0.09,1.69-0.16c1.62-0.22,3.2,0,4.76,0.32c0.25,0.05,0.47,0.18,0.81,0.32
			C228.19,240.17,228.1,240.4,227.92,240.51z M243.25,229.26c0.02,0.09,0.02,0.18,0,0.25c-0.04,0.16-0.11,0.29-0.16,0.45
			c-0.25,0.74-0.7,1.33-1.4,1.76c-0.18,0.11-0.34,0.23-0.56,0.32c-0.02-0.14-0.04-0.25-0.04-0.34c0-0.04-0.02-0.09,0-0.13
			c0.14-0.29,0.18-0.58,0.16-0.86c0-0.04,0.02-0.07,0-0.11c-0.04-0.32-0.16-0.63-0.36-0.92c-0.14-0.22-0.31-0.41-0.48-0.59
			c-0.31-0.31-0.67-0.54-1.1-0.68c-0.07-0.02-0.13-0.05-0.2-0.07c-1.4-0.36-2.82-0.66-4.26-0.84c-0.05,0-0.11-0.02-0.16-0.02
			c-0.47-0.05-0.92-0.13-1.38-0.16h-0.07c-0.65-0.04-1.28-0.07-1.92-0.07c-0.5,0.02-1.01,0.02-1.51,0.02c-0.54,0-1.08,0-1.6,0.02
			c-0.81,0-1.62,0-2.43,0.02c-0.92,0.02-1.85,0.04-2.77,0.07c-1.04,0.04-2.09,0.16-3.13,0.29c-0.57,0.07-1.17,0.14-1.74,0.2
			c-0.18,0.02-0.36,0.05-0.52,0.07c-0.13,0.02-0.25,0.04-0.36,0.04c-0.22-0.02-0.43,0-0.66,0c-1.11,0.02-2.21,0.23-3.31,0.43
			c-0.25,0.04-0.52,0.09-0.77,0.13c-0.39,0.05-0.77,0.11-1.15,0.14c-0.93,0.13-1.89,0.25-2.82,0.38c-0.63,0.09-1.28,0.2-1.9,0.31
			c-0.25,0.04-0.49,0.07-0.72,0.11c0-0.04-0.02-0.07-0.02-0.11c0-0.04,0-0.09-0.02-0.13c0.81-0.16,1.6-0.34,2.41-0.5
			c0.65-0.14,1.29-0.27,1.94-0.38c0.66-0.13,1.33-0.2,1.99-0.31c0.88-0.13,1.76-0.27,2.64-0.4c0.32-0.04,0.65-0.05,0.95-0.09
			c0.34-0.02,0.68-0.05,1.01-0.09c0.27-0.02,0.56-0.04,0.83-0.07c0.5-0.07,1.02-0.13,1.53-0.18c2.53-0.32,5.09-0.61,7.64-0.79
			c1.02-0.07,2.05-0.13,3.07-0.14c1.1-0.04,2.19-0.05,3.29,0c1.42,0.05,2.82,0.2,4.21,0.36l2.37,0.27c0.27,0.04,0.52,0.11,0.79,0.18
			c0.34,0.11,0.68,0.22,1.04,0.31c0.61,0.16,1.01,0.56,1.31,1.04c0.09,0.16,0.18,0.32,0.27,0.5c0.04,0.09,0.05,0.18,0.07,0.29
			C243.25,229.24,243.25,229.24,243.25,229.26z M291.38,185.59c-0.74,0.97-1.62,1.76-2.73,2.23c-0.25,0.09-0.5,0.2-0.79,0.27
			c-0.22,0.05-0.45,0.05-0.59,0.07c-0.16,0-0.29-0.04-0.43-0.07c-0.66-0.13-0.97-0.54-0.81-1.13c0.02-0.09,0.05-0.18,0.09-0.29
			c0.13-0.27,0.31-0.54,0.54-0.83c0.31-0.38,0.68-0.74,1.13-1.04c0.16-0.11,0.32-0.22,0.49-0.31c0.25-0.16,0.52-0.29,0.79-0.38
			c0.18-0.07,0.36-0.13,0.54-0.16c0,0,0.02,0,0.04,0c0.2-0.05,0.4-0.07,0.59-0.07c0.11,0,0.2,0,0.31,0.02
			C291.53,184,291.98,184.8,291.38,185.59z"/>
		<path d="M182.19,233.53c-0.13-2.8-0.94-5.23-2.05-7.75c-1.22-2.62-2.62-5.26-4.31-7.91c-1.61-2.65-3.36-5.33-5.1-8.02l-2.73-4.63
			c-0.81-1.63-1.59-3.3-2.3-4.98c-1.25-3.47-2.35-7.03-2.64-10.79c-0.34-3.72-0.15-7.53,0.86-11.12c1.04-3.54,2.73-7,5.49-9.33
			c-0.99,6.96,0.33,12.97,2.37,18.59c0.97,2.82,2.37,5.5,3.71,8.18c0.79,1.3,1.48,2.64,2.28,3.94l2.49,3.93
			c0.91,1.49,1.84,2.94,2.72,4.47c0.8,1.59,1.71,3.06,2.41,4.74l1.08,2.47c0.33,0.86,0.63,1.73,0.93,2.6
			c0.32,0.85,0.55,1.78,0.79,2.68l0.34,1.37l0.25,1.43c0.45,2.68,0.5,5.64-0.06,8.41c0.1-0.01,0.21-0.03,0.35-0.06
			c0.17-0.05,0.35-0.1,0.52-0.14c0.61-3.31,0.31-6.47,0-8.34l-0.26-1.49l-0.43-1.74c-0.21-0.8-0.43-1.63-0.72-2.38l-0.08-0.23
			c-0.28-0.8-0.55-1.61-0.87-2.43l-1.08-2.45c-0.48-1.14-1.04-2.18-1.59-3.2c-0.29-0.53-0.57-1.06-0.87-1.64
			c-0.61-1.07-1.26-2.11-1.9-3.14l-3.32-5.27c-0.41-0.67-0.79-1.34-1.17-2.02c-0.36-0.64-0.72-1.28-1.07-1.85l-0.43-0.85
			c-1.18-2.34-2.39-4.76-3.25-7.24c-2.44-6.74-3.16-12.35-2.32-18.2l0.3-2.12l-1.63,1.38c-2.55,2.16-4.49,5.43-5.75,9.73
			c-0.97,3.44-1.27,7.27-0.89,11.4c0.31,4,1.53,7.81,2.7,11.04c0.63,1.5,1.37,3.09,2.35,5.07l2.75,4.66l0.62,0.95
			c1.5,2.32,3.06,4.72,4.48,7.06c1.53,2.4,2.93,4.95,4.26,7.8c0.98,2.22,1.88,4.68,2,7.6c0,0,0.02-0.01,0.02-0.01
			C181.7,233.63,181.95,233.57,182.19,233.53z"/>
		<path d="M186.62,237.29c0-0.03,0.01-0.06,0.01-0.08c-0.01,0.01-0.01,0.03-0.02,0.05C186.61,237.27,186.62,237.28,186.62,237.29z"
			/>
		<path d="M189.57,231.6c-0.23,1.26-0.58,2.53-1.11,3.77c-1.37,3.24-3.2,5.57-5.14,8.05l-2.19,2.8l-0.11-2.19
			c-0.09-1.91,0.07-3.76,0.22-5.54c0.13-1.62,0.27-3.16,0.18-4.53c0-0.09-0.02-0.18-0.02-0.27h0.02c0.29-0.07,0.54-0.13,0.79-0.18
			c0,0.14,0.02,0.27,0.02,0.4c0.18,2.97-0.56,6.51-0.4,10.08c1.71-2.19,3.4-4.24,4.78-6.74c0,0.02,0.02,0.02,0.02,0.04
			c0-0.04,0-0.05,0.02-0.09c0.38-0.68,0.74-1.38,1.06-2.16c0.45-1.02,0.77-2.12,1.01-3.25c0.09,0,0.2-0.02,0.34-0.05
			C189.23,231.69,189.39,231.65,189.57,231.6z"/>
		<path d="M183.04,233.9c0-0.18-0.04-0.34-0.05-0.51c-0.09,0.02-0.15,0.02-0.25,0.04c0.13,0.2,0.2,0.42,0.3,0.64
			C183.04,234.01,183.04,233.95,183.04,233.9z"/>
		<path d="M186.97,234.68c-0.01,0.02-0.01,0.04-0.02,0.05c-0.27,0.64-0.56,1.23-0.87,1.81c0.25,0.02,0.44,0.23,0.52,0.71
			c0.01-0.01,0.01-0.03,0.02-0.05c0.01-0.12,0.03-0.23,0.04-0.35C186.83,235.82,186.93,235.19,186.97,234.68z"/>
		<path d="M188.76,223.39l-0.25-1.43l-0.34-1.37c-0.24-0.9-0.48-1.84-0.79-2.68c-0.3-0.87-0.59-1.74-0.93-2.6l-1.08-2.47
			c-0.7-1.68-1.61-3.15-2.41-4.74c-0.87-1.52-1.81-2.98-2.72-4.47l-2.49-3.93c-0.8-1.29-1.49-2.64-2.28-3.94
			c-1.34-2.67-2.74-5.36-3.71-8.18c-2.04-5.62-3.36-11.63-2.37-18.59c-2.76,2.34-4.45,5.79-5.49,9.33
			c-1.02,3.59-1.21,7.4-0.86,11.12c0.29,3.76,1.38,7.32,2.64,10.79c0.71,1.68,1.49,3.34,2.3,4.98l2.73,4.63
			c1.75,2.69,3.5,5.36,5.1,8.02c1.69,2.65,3.09,5.29,4.31,7.91c1.11,2.52,1.92,4.95,2.05,7.75c0.2-0.04,0.38-0.07,0.55-0.1
			c-0.05-0.09-0.11-0.16-0.16-0.25c-0.16-0.23,0.04-0.36,0.34-0.47c-0.11-0.05-0.2-0.13-0.29-0.23c0.09-0.01,0.18-0.04,0.27-0.06
			c-0.29-2.63-1.11-4.91-2.03-6.98c-1.37-2.93-2.8-5.55-4.36-7.99c-1.42-2.35-2.99-4.76-4.5-7.09l-3.3-5.5
			c-0.94-1.9-1.66-3.46-2.26-4.89c-1.12-3.09-2.3-6.77-2.59-10.59c-0.37-3.94-0.08-7.58,0.83-10.81c0.88-3.01,2.11-5.47,3.65-7.33
			c-0.4,5.3,0.45,10.53,2.66,16.62c0.88,2.57,2.13,5.04,3.33,7.43l0.46,0.9c0.37,0.62,0.73,1.24,1.08,1.87
			c0.39,0.7,0.78,1.39,1.21,2.08l3.31,5.27c0.63,1.02,1.27,2.04,1.85,3.06c0.28,0.56,0.57,1.1,0.87,1.64
			c0.55,1.02,1.07,1.99,1.53,3.07l1.07,2.43c0.3,0.77,0.57,1.56,0.84,2.34l0.08,0.25c0.26,0.7,0.47,1.49,0.67,2.25l0.41,1.65
			l0.25,1.43c0.29,1.76,0.58,4.71,0.01,7.79c0.15,0.39,0.35,0.53,0.73,0.49C189.26,229.03,189.21,226.07,188.76,223.39z"/>
		<path d="M186.09,236.54c-1,1.87-2.19,3.48-3.45,5.1c0.04-1.01,0.13-2.02,0.21-3c0.14-1.62,0.25-3.15,0.19-4.57
			c-0.1-0.21-0.17-0.43-0.3-0.64c-0.16,0.02-0.35,0.06-0.55,0.1c0.01,0.13,0.03,0.26,0.04,0.39c0.16,2.96-0.57,6.5-0.4,10.07
			c1.7-2.19,3.4-4.24,4.78-6.74C186.52,236.77,186.33,236.56,186.09,236.54z"/>
		<path d="M182.9,232.41c-0.09,0.02-0.18,0.05-0.27,0.06c0.09,0.11,0.18,0.18,0.29,0.23c-0.31,0.11-0.5,0.23-0.34,0.47
			c0.05,0.09,0.11,0.16,0.16,0.25c0.1-0.02,0.16-0.03,0.25-0.04C182.97,233.06,182.94,232.74,182.9,232.41z"/>
		<path d="M187.97,231.31c-0.21,1.12-0.52,2.26-1,3.37c-0.04,0.51-0.14,1.14-0.3,2.18c-0.01,0.12-0.03,0.23-0.04,0.35
			c0.38-0.69,0.75-1.39,1.07-2.16c0.45-1.03,0.77-2.13,1-3.25C188.32,231.84,188.12,231.7,187.97,231.31z"/>
		<path d="M240.22,260.39c-0.14,0.31-0.32,0.59-0.49,0.88c-1.71,2.95-3.77,5.63-6.13,8.11c-0.32,0.34-0.68,0.68-1.02,0.99
			C236.24,266.64,238.67,263.12,240.22,260.39z"/>
	</g>
	<g>
		<g>
			<g>
				<g>
					<path d="M161.48,385.25c-2.16,0-4.4-0.63-6.72-1.88c-0.98,0.52-3.14,1.41-5.38,0.65c-0.51-0.17-0.79-0.73-0.62-1.24
						c0.17-0.51,0.73-0.79,1.24-0.62c2.03,0.68,4.17-0.72,4.19-0.74c0.31-0.21,0.72-0.22,1.04-0.04c5.71,3.3,10.72,2.26,15.32-3.18
						c0.34-0.4,0.94-0.46,1.35-0.14c6.5,5.04,12.46,5.03,18.23-0.03c0.19-0.17,0.45-0.26,0.71-0.24c11.02,0.7,13.36-4.52,13.38-4.57
						c0.15-0.36,0.51-0.6,0.9-0.6c12.48,0,13.49-8.35,13.52-8.71c0.03-0.26,0.16-0.5,0.36-0.67c7.1-5.77,2.82-11.75,2.64-12
						c-0.2-0.28-0.25-0.64-0.12-0.95c2.4-5.87-1.41-9.34-1.57-9.49c-0.33-0.29-0.43-0.77-0.24-1.16c3.3-6.86-2.08-10.19-2.31-10.33
						c-0.42-0.25-0.6-0.78-0.4-1.24c2.95-6.76-1.47-10.39-1.66-10.54c-0.42-0.34-0.5-0.95-0.16-1.38c0.33-0.42,0.95-0.5,1.37-0.17
						c0.06,0.04,5.49,4.4,2.55,12.13c1.65,1.32,5.44,5.25,2.66,11.74c1.18,1.36,3.78,5.18,1.76,10.68c1.03,1.76,3.95,8.1-2.99,13.97
						c-0.16,0.86-0.68,2.88-2.3,4.89c-1.84,2.29-5.5,5.02-12.53,5.16c-0.95,1.49-4.19,5.24-12.9,5.24c-0.54,0-1.1-0.01-1.68-0.04
						c-3.17,2.69-6.46,4.04-9.84,4.04c-3.21,0-6.49-1.21-9.84-3.64C168.36,383.56,165.03,385.25,161.48,385.25z"/>
				</g>
				<g>
					<path d="M207.98,327.07c0.49,0.79,1.27,1.44,2.09,1.9c0,0-0.89-0.05-0.89-0.05c1.64-0.89,3.06-2.37,3.34-4.27
						c0.1-0.87,1.32-0.87,1.4,0c0.02,0.23,0.02,0.49,0.03,0.72c-0.08,2.03-1.45,3.8-3.12,4.84c-0.5,0.29-1.17,0.8-1.74,0.41
						c-1.1-0.71-2.1-1.74-2.43-3.04c0,0-0.04-0.17-0.04-0.17C206.43,326.49,207.75,326.17,207.98,327.07L207.98,327.07z"/>
				</g>
				<g>
					<path d="M210.43,330.28c-0.68,1.26-1.38,2.87-1.42,4.28c-0.01,0.74,0.32,1.23,0.67,1.83c0.37,0.59,0.79,1.13,1.31,1.59
						c0.4,0.27,0.57,0.78,0.4,1.21c-1.26,3.45-1.48,8.13,1.77,10.54c0.41,0.32,0.5,0.89,0.23,1.31c-0.07,0.11-0.16,0.25-0.23,0.39
						c-0.23,0.41-0.44,0.84-0.64,1.27c-0.77,1.73-1.22,3.61-1.24,5.51c0.02,0.31-0.18,0.59-0.35,0.81c-0.19,0.25-0.39,0.49-0.6,0.72
						c-1.42,1.56-3.62,2.53-5.75,2.19c-0.85-0.12-1.65-0.39-2.38-0.75l1.41-0.75c-0.55,3.11-2.06,6.14-4.8,7.9
						c-2.7,1.75-6.23,1.61-9.17,0.71c-0.01,0,1.1-0.4,1.09-0.4c-0.17,0.25-0.32,0.44-0.48,0.65c-3.39,4.34-8.87,7.38-14.45,5.63
						c-2.48-0.76-4.72-2.26-6.58-3.97c0,0,1.44-0.13,1.44-0.13c-2.97,3.45-7.32,5.85-11.92,6c-2.71,0.1-5.43-0.64-7.83-1.83
						c-0.3-0.15-0.42-0.51-0.27-0.81c0.15-0.29,0.5-0.42,0.8-0.28c1.53,0.69,3.14,1.17,4.77,1.38c0.82,0.08,1.64,0.13,2.46,0.06
						c3.28-0.21,6.38-1.75,8.79-3.95c0.45-0.41,0.88-0.85,1.28-1.31c0.13-0.15,0.27-0.32,0.36-0.44c0.32-0.43,0.93-0.52,1.36-0.19
						c2.07,1.88,4.43,3.45,7.19,3.89c4.33,0.76,8.44-1.95,11.04-5.25c0.14-0.17,0.29-0.37,0.39-0.52c0.25-0.37,0.7-0.51,1.1-0.4
						c4.03,1.23,7.96,0.64,10.14-3.29c0.57-1,0.99-2.12,1.24-3.25c0.03-0.16,0.07-0.34,0.09-0.46c0.08-0.54,0.58-0.91,1.11-0.83
						c0.71,0.23,1.32,0.58,2.07,0.66c1.84,0.29,3.6-0.8,4.62-2.29c0,0-0.15,0.52-0.15,0.52c0.01-1.1,0.14-2.18,0.38-3.24
						c0.42-1.77,1.08-3.46,2.05-5l0.22,1.33c-2.99-2.2-3.81-6.06-3.25-9.54c0.17-1.14,0.43-2.22,0.84-3.31l0.33,1.16
						c-1.13-0.91-1.94-2.12-2.54-3.43c-0.6-1.42-0.2-3.11,0.26-4.43c0.31-0.87,0.67-1.65,1.12-2.46
						C209.39,328.19,211.07,329.11,210.43,330.28L210.43,330.28z"/>
				</g>
				<g>
					<path d="M210.23,337.88c0.76-0.1,1.55-0.36,2.24-0.72c0.25-0.13,0.48-0.28,0.7-0.45c0.25-0.18,0.6-0.13,0.78,0.13
						c0.38,0.57-0.37,1.03-0.71,1.4c-0.75,0.66-1.59,1.17-2.53,1.54C209.26,340.33,208.68,338.09,210.23,337.88L210.23,337.88z"/>
				</g>
				<g>
					<path d="M221.13,340.91l-3.08,1.45c-0.6,0.28-1.1-0.53-0.6-0.95c0,0,2.62-2.16,2.62-2.16
						C221.27,338.37,222.43,340.21,221.13,340.91L221.13,340.91z"/>
				</g>
				<g>
					<path d="M211.27,358.1c0.01,1.07,0.2,2.26,0.67,3.22c0.15,0.28,0.04,0.64-0.24,0.78c-0.24,0.12-0.52,0.05-0.68-0.15
						c-0.76-0.93-1.21-1.99-1.56-3.12c-0.05-0.17-0.1-0.34-0.14-0.54C209.07,356.86,211.21,356.64,211.27,358.1L211.27,358.1z"/>
				</g>
				<g>
					<path d="M204.99,374.58c-1.32-0.35-2.38-1.34-3.16-2.42c-0.22-0.29-0.46-0.73-0.64-1.05c-0.15-0.27-0.06-0.61,0.21-0.76
						c0.25-0.14,0.57-0.06,0.73,0.16c0.78,0.97,1.91,1.98,3.13,2.12C206.55,372.87,206.28,374.73,204.99,374.58L204.99,374.58z"/>
				</g>
				<g>
					<path d="M220.15,364.85c-1.35,0.62-2.89,0.62-4.33,0.41c0,0-0.58-0.11-0.58-0.11c-0.3-0.06-0.51-0.35-0.45-0.65
						c0.05-0.28,0.31-0.47,0.58-0.46c1.27,0,2.69-0.16,3.74-0.86C220.24,362.54,221.23,364.14,220.15,364.85L220.15,364.85z"/>
				</g>
				<g>
					<path d="M154.21,381.42c0.84-0.47,1.55-1.21,2.13-1.99c0.21-0.28,0.39-0.59,0.57-0.89c0.16-0.27,0.5-0.36,0.77-0.2
						c0.24,0.14,0.33,0.42,0.25,0.67c-0.25,0.75-0.59,1.47-1.01,2.15c-0.45,0.7-0.98,1.38-1.63,1.91
						C154.19,383.75,153.15,382.16,154.21,381.42L154.21,381.42z"/>
				</g>
				<g>
					<path d="M162.91,367.1c-0.67,0-1.38-0.08-2.1-0.26c-0.64-0.08-4.2-0.7-7.66-4.92c-0.34-0.42-0.28-1.04,0.14-1.38
						c0.42-0.34,1.04-0.28,1.38,0.14c3.17,3.86,6.27,4.2,6.4,4.21c0.05,0,0.11,0.01,0.15,0.03c4.64,1.17,8.35-3.01,8.39-3.06
						c0.31-0.36,0.84-0.44,1.25-0.2c7.08,4.26,10.69-0.7,10.84-0.92c0.25-0.36,0.71-0.51,1.13-0.37c4.74,1.64,8.39-0.13,9.67-0.91
						c-0.76-4.54,2-7.62,3.15-8.69c-0.81-4.89,1.58-7.88,3.05-9.22c-2.18-2.31-1.5-5.78-0.73-7.47c0.02-0.04,0.04-0.09,0.07-0.13
						c0.02-0.02,1.74-2.78,1.03-6.58c-0.92-4.88,2.54-7.04,2.69-7.13c0.46-0.28,1.07-0.13,1.35,0.33c0.28,0.46,0.14,1.06-0.32,1.35
						c-0.12,0.08-2.44,1.6-1.78,5.1c0.81,4.27-0.93,7.4-1.26,7.94c-0.21,0.49-1.61,4.06,1.06,5.81c0.28,0.19,0.45,0.51,0.44,0.85
						c-0.01,0.34-0.19,0.65-0.49,0.82c-0.17,0.1-4.31,2.65-3.07,8.51c0.08,0.37-0.06,0.76-0.37,0.99c-0.16,0.12-3.89,3.04-2.76,7.75
						c0.09,0.37-0.05,0.77-0.35,1c-0.2,0.16-4.85,3.68-11.36,1.75c-1.36,1.46-5.58,4.94-12.3,1.29
						C169.36,364.85,166.54,367.1,162.91,367.1z"/>
				</g>
				<g>
					<path d="M155.82,356.61c0.41,2.33-0.19,5.3-2.57,6.37c-1.3,0.62-2.91,0.57-4.23,0.23c-0.38-0.1-0.61-0.48-0.51-0.86
						c0.08-0.32,0.37-0.53,0.69-0.53c1.4-0.03,2.96-0.1,3.92-1.12c0.97-1.02,1.11-2.65,1.3-4.07
						C154.54,355.82,155.7,355.82,155.82,356.61L155.82,356.61z"/>
				</g>
				<g>
					<path d="M207.8,336.8c-1.04-0.18-2.13-0.06-3.13,0.28c-0.29,0.1-0.61-0.05-0.72-0.35c-0.09-0.25,0.01-0.52,0.23-0.66
						c1.03-0.67,2.24-1.08,3.47-1.21c0.13-0.02,0.38-0.02,0.54-0.02c0.56-0.01,1.03,0.44,1.03,1.01
						C209.24,336.57,208.45,337.1,207.8,336.8L207.8,336.8z"/>
				</g>
				<g>
					<path d="M210.22,348.19c-2.36,1.44-5.54,1.65-7.86,0.05c-0.59-0.37-0.1-1.27,0.53-0.99c0.65,0.31,1.32,0.56,2.03,0.6
						c1.47,0.13,2.99-0.38,4.16-1.26C210.18,345.73,211.39,347.41,210.22,348.19L210.22,348.19z"/>
				</g>
				<g>
					<path d="M197.6,350.76c0.39,1.03,0.99,1.99,1.64,2.88c0.22,0.31,0.46,0.61,0.71,0.91c0.2,0.24,0.17,0.6-0.07,0.8
						c-0.21,0.17-0.52,0.17-0.72-0.01c-0.31-0.27-0.62-0.54-0.91-0.82c-0.6-0.57-1.16-1.19-1.67-1.85
						c-0.29-0.38-0.56-0.74-0.79-1.17C195.13,350.18,197.14,349.37,197.6,350.76L197.6,350.76z"/>
				</g>
				<g>
					<path d="M194.29,359.25c0.01,0.02,1.65,2.28,1.65,2.29c0.18,0.25,0.13,0.61-0.13,0.79c-0.21,0.15-0.48,0.14-0.67-0.01
						l-2.27-1.72C191.71,359.61,193.35,358.04,194.29,359.25L194.29,359.25z"/>
				</g>
				<g>
					<path d="M176.58,363.39c1.45,0.08,2.73,1.05,3.53,2.19c0.54,0.8,0.91,1.75,1.15,2.68c0.18,0.67-0.76,1.01-1.05,0.38
						c-0.31-0.76-0.73-1.54-1.28-2.15c-0.59-0.64-1.47-1.19-2.3-1.15C175.34,365.35,175.28,363.47,176.58,363.39L176.58,363.39z"/>
				</g>
				<g>
					<path d="M188.93,368.03c0.18-0.88,0.3-1.95,0.12-2.82c-0.1-0.31,0.09-0.65,0.41-0.72c0.25-0.06,0.5,0.06,0.62,0.28
						c0.57,1.1,0.72,2.21,0.81,3.41C190.91,369.71,188.67,369.53,188.93,368.03L188.93,368.03z"/>
				</g>
				<g>
					<path d="M161.26,366.95c-0.93,0.49-1.77,1.21-2.43,2.04c-0.23,0.28-0.41,0.59-0.59,0.9c-0.14,0.29-0.5,0.41-0.78,0.25
						c-0.24-0.14-0.34-0.42-0.25-0.67c0.27-0.82,0.68-1.6,1.19-2.29c0.54-0.73,1.16-1.39,1.89-1.94
						C161.51,364.44,162.58,366.31,161.26,366.95L161.26,366.95z"/>
				</g>
				<g>
					<path d="M165.03,326.02c1.3,3.45,4.22,6.27,8.1,5.67c1.17-0.13,2.35-0.46,3.5-0.93c0.29-0.12,0.61-0.09,0.86,0.05
						c1.63,0.88,3.5,1.44,5.34,1.64c0.93,0.1,1.87,0.11,2.79-0.01c0.93-0.08,1.82-0.35,2.69-0.64c0.52-0.21,1.13,0.05,1.31,0.6
						c0.17,0.51-0.11,1.07-0.62,1.24c-1.28,0.44-2.61,0.76-3.97,0.81c-2.95,0.14-5.92-0.6-8.51-2.01c0,0,0.86,0.05,0.86,0.05
						c-2.53,1.24-5.75,1.72-8.38,0.39c-1.99-0.97-3.41-2.66-4.34-4.59c-0.3-0.65-0.55-1.26-0.73-1.97c-0.08-0.3,0.1-0.61,0.4-0.68
						C164.65,325.57,164.95,325.74,165.03,326.02L165.03,326.02z"/>
				</g>
				<g>
					<path d="M193.01,329.03c-0.54,1.99-2.1,3.57-3.87,4.55l0.33-1.43c0.06,0.08,0.09,0.13,0.13,0.19c0.5,0.82,0.86,1.72,1.08,2.65
						c0.23,0.98,0.31,1.99,0.2,2.98c-0.04,0.39-0.39,0.67-0.78,0.62c-0.34-0.04-0.59-0.3-0.62-0.62c-0.07-0.43-0.13-0.85-0.23-1.26
						c-0.27-1.2-0.7-2.38-1.37-3.42c-0.31-0.46-0.18-1.09,0.28-1.4c0.37-0.22,0.74-0.43,1.08-0.68c0.98-0.69,1.82-1.58,2.44-2.61
						C192.05,327.8,193.21,328.17,193.01,329.03L193.01,329.03z"/>
				</g>
				<g>
					<path d="M195.8,345.9c-0.55,0-1.14-0.13-1.72-0.46c-0.1-0.05-0.2-0.11-0.3-0.17c-1.63-0.95-3.87-2.24-7.53-0.24
						c-0.41,0.22-0.91,0.13-1.21-0.22c-0.02-0.02-2.32-2.62-5.5-2.8c-1.91-0.11-3.8,0.68-5.61,2.34c-0.4,0.36-1.02,0.34-1.38-0.06
						c-0.06-0.06-6.09-6.41-13.64-3.99c-0.46,0.15-0.96-0.06-1.18-0.5c-0.03-0.05-0.76-1.44-2.32-1.44c-2.86,0-6.98-0.32-9.72-3.06
						c-0.38-0.38-0.38-1,0-1.39c0.38-0.38,1-0.38,1.39,0c1.7,1.7,4.35,2.49,8.34,2.49c1.85,0,3.02,1.08,3.61,1.83
						c6.92-1.82,12.41,2.38,14.28,4.07c2.02-1.62,4.16-2.38,6.36-2.25c3.02,0.18,5.31,1.98,6.31,2.92c4.27-2.01,7.18-0.32,8.78,0.61
						c0.1,0.06,0.19,0.11,0.28,0.16c1.02,0.58,2.03-0.27,2.07-0.31c0.41-0.35,1.03-0.31,1.38,0.1c0.35,0.41,0.32,1.02-0.09,1.38
						C197.9,345.35,196.93,345.9,195.8,345.9z"/>
				</g>
				<g>
					<path d="M148.9,329.31c-1.18,1.43-1.87,3.21-1.74,5.07c0.02,0.33-0.13,0.63-0.38,0.82c-1.1,0.77-1.39,2.07-1.25,3.36
						c0.04,0.47,0.13,0.96,0.23,1.46c0.08,0.38-0.17,0.77-0.55,0.84c-0.33,0.06-0.65-0.11-0.78-0.4c-0.23-0.51-0.42-1.05-0.55-1.63
						c-0.28-1.21-0.24-2.58,0.41-3.72c0.33-0.59,0.8-1.09,1.31-1.48l-0.39,0.83c-0.15-2.31,0.9-4.75,2.72-6.15
						C148.57,327.8,149.43,328.67,148.9,329.31L148.9,329.31z"/>
				</g>
				<g>
					<path d="M142.04,332.01c0.91,0.65,2.01,1.2,3.11,1.39c0.36,0.06,0.7,0.06,1.03,0.04c0.54-0.04,1.02,0.37,1.06,0.91
						c0.04,0.54-0.37,1.02-0.91,1.06c-1.98-0.08-3.69-1.22-5.06-2.57C140.8,332.32,141.5,331.57,142.04,332.01L142.04,332.01z"/>
				</g>
				<g>
					<path d="M143.23,347.14c0.47-0.52,1.14-0.98,1.65-1.44l-0.24,0.98c-0.15-0.52-0.26-1.05-0.33-1.59
						c-0.02-0.18-0.04-0.36-0.03-0.55c0-0.41,0.34-0.73,0.74-0.73c0.67,0.03,0.85,0.8,1.11,1.29c0.24,0.61,0.72,1.42,0.15,1.97
						c-0.53,0.52-1.09,0.83-1.75,1.1c-0.2,0.08-0.4,0.15-0.62,0.2c-0.39,0.09-0.78-0.16-0.87-0.56
						C142.98,347.56,143.07,347.31,143.23,347.14L143.23,347.14z"/>
				</g>
				<g>
					<path d="M170.82,354.55c-4.52,0-7.59-3.08-9.39-4.89c-0.43-0.43-0.79-0.79-1.06-1c-1.42-1.1-4.55-0.66-9.3,1.29
						c-1.32,0.54-2.54,0.56-3.65,0.04c-1.98-0.91-2.75-3.2-2.78-3.3c-0.17-0.52,0.11-1.07,0.63-1.24c0.52-0.17,1.07,0.11,1.24,0.62
						c0.01,0.04,0.56,1.59,1.75,2.14c0.6,0.27,1.28,0.25,2.08-0.08c5.6-2.3,9.17-2.63,11.25-1.03c0.37,0.28,0.77,0.69,1.25,1.17
						c2.73,2.73,7.29,7.31,15.26,1.45c0.3-0.22,0.69-0.25,1.02-0.09c0.07,0.03,6.96,3.37,10.14,0.19c0.38-0.38,1-0.38,1.39,0
						c0.38,0.38,0.38,1,0,1.39c-3.6,3.6-9.95,1.26-11.85,0.43C175.74,353.77,173.1,354.55,170.82,354.55z"/>
				</g>
				<g>
					<path d="M161.93,344.02c-0.1,1.66,0.35,3.41,1.34,4.76c0.71,1.09-0.85,2.17-1.62,1.12c-0.9-1.61-1.18-3.51-0.96-5.33
						c0.07-0.48,0.09-1.31,0.81-1.18C161.79,343.46,161.97,343.74,161.93,344.02L161.93,344.02z"/>
				</g>
				<g>
					<path d="M150.77,349.95c-0.7,0.62-1.16,1.54-1.28,2.48c-0.06,0.34-0.04,0.7-0.02,1.06c0.02,0.31-0.22,0.57-0.53,0.59
						c-0.27,0.02-0.51-0.16-0.58-0.42c-0.23-0.83-0.29-1.73-0.12-2.59c0.17-0.9,0.55-1.78,1.13-2.5
						C150.3,347.67,151.65,349,150.77,349.95L150.77,349.95z"/>
				</g>
				<g>
					<path d="M158.94,340.28c-1.6,0.49-3.06,1.48-4.15,2.77c-0.44,0.55-1.29-0.04-0.92-0.64c1.05-1.71,2.59-3.12,4.42-3.98
						C159.64,337.85,160.35,339.89,158.94,340.28L158.94,340.28z"/>
				</g>
				<g>
					<path d="M174.01,344.26c-1.11,1.17-1.75,2.76-1.89,4.36c-0.09,0.68-1.07,0.65-1.12-0.03c-0.13-1.97,0.39-4,1.53-5.62
						C173.42,341.77,175.08,343.23,174.01,344.26L174.01,344.26z"/>
				</g>
				<g>
					<path d="M186.47,344.86c-0.95,0.77-1.92,1.63-2.69,2.57c-0.19,0.25-0.55,0.3-0.8,0.11c-0.21-0.17-0.27-0.46-0.16-0.69
						c0.31-0.63,0.67-1.2,1.05-1.76c0.39-0.57,0.78-1.09,1.22-1.63C186.06,342.38,187.57,343.91,186.47,344.86L186.47,344.86z"/>
				</g>
				<g>
					<path d="M177.75,350.88c-0.3-1.12-0.22-2.31,0.04-3.42c0.18-0.52,0.26-1.6,1.05-1.36c0.25,0.1,0.4,0.35,0.36,0.61
						c-0.18,1.15-0.13,2.4,0.37,3.45C180.01,351.38,178.26,352.07,177.75,350.88L177.75,350.88z"/>
				</g>
				<g>
					<path d="M166.26,353.53c-1.43-0.1-2.87,0.68-3.58,1.95c-0.13,0.21-0.22,0.46-0.34,0.68c-0.32,0.6-1.23,0.21-1.02-0.43
						c0.44-1.82,1.83-3.35,3.64-3.9c0.44-0.13,0.89-0.24,1.36-0.26C167.62,351.64,167.56,353.52,166.26,353.53L166.26,353.53z"/>
				</g>
				<g>
					<path d="M169.8,361.71c1.39-0.91,2.22-2.53,2.6-4.13c0.19-0.66,1.17-0.46,1.1,0.22c-0.16,1.98-0.92,3.98-2.39,5.37
						C170.06,364.21,168.63,362.6,169.8,361.71L169.8,361.71z"/>
				</g>
				<g>
					<path d="M177.5,332.48c-1.58,0.82-3.04,2.1-3.7,3.79c-0.24,0.67-1.23,0.39-1.08-0.31c0.43-1.88,1.67-3.47,3.13-4.68
						c0.24-0.19,0.44-0.36,0.71-0.53C177.78,330.03,178.77,331.85,177.5,332.48L177.5,332.48z"/>
				</g>
				<g>
					<path d="M155.78,337.41c-0.04-1.83,0.23-3.72,1.27-5.26c0.39-0.56,1.25-0.06,0.97,0.55c-0.63,1.37-0.58,3-0.3,4.45
						C157.99,338.56,155.89,338.84,155.78,337.41L155.78,337.41z"/>
				</g>
			</g>
			<g>
				<g>
					<path d="M124.44,393.83c-2.4,0-4.71-0.67-6.69-1.8c-4.8-2.74-8.55-8.83-5.74-15.89c-4.85-4.8-5.29-10.23-1.32-16.16
						c-2.58-5.01-2.72-9.41-0.42-13.09c-3.1-3.95-2.92-8.27,0.52-12.56c-2.72-3.69-2.64-7.45,0.25-11.43
						c-4.23-7.33-1.52-11.57,1.56-13.85c0.44-0.32,1.05-0.23,1.37,0.2c0.32,0.44,0.23,1.05-0.2,1.37
						c-3.68,2.73-3.92,6.59-0.71,11.82c0.21,0.35,0.19,0.8-0.06,1.12c-2.89,3.68-2.94,6.82-0.18,10.16c0.31,0.37,0.3,0.91-0.02,1.27
						c-3.52,4.03-3.7,7.58-0.56,11.18c0.3,0.34,0.32,0.85,0.06,1.22c-2.38,3.32-2.24,7.31,0.41,12.18c0.18,0.33,0.16,0.73-0.06,1.04
						c-3.87,5.46-3.48,10.22,1.2,14.56c0.31,0.29,0.4,0.74,0.23,1.12c-2.8,6.21,0.45,11.62,4.66,14.02
						c1.67,0.96,3.63,1.52,5.67,1.52c3.43,0,7.08-1.6,9.92-5.62c0.24-0.34,0.66-0.49,1.05-0.38c8.82,2.33,13.46-1.67,14.77-5.81
						c1.27-4.05-0.15-9.37-5.3-11.26c-0.25-0.09-0.45-0.28-0.56-0.53c-0.11-0.24-0.11-0.52-0.01-0.77c1.19-2.89,1.43-5.11,0.72-6.78
						c-0.58-1.36-1.79-2.39-3.72-3.15c-0.48-0.19-0.73-0.72-0.57-1.21c1.5-4.62,0.74-7.57-2.37-9.26c-0.23-0.13-0.4-0.34-0.48-0.6
						c-0.07-0.26-0.04-0.53,0.1-0.76c2.06-3.52,1.44-6.35-1.95-8.9c-0.22-0.17-0.36-0.42-0.39-0.69c-0.03-0.27,0.06-0.55,0.25-0.75
						c2.32-2.58,2.29-5.43-0.09-8.98c-0.19-0.28-0.22-0.64-0.08-0.95c0.14-0.31,0.43-0.52,0.77-0.57c0.08-0.01,2.24-0.37,3.09-3.04
						c0.16-0.52,0.72-0.8,1.23-0.64c0.52,0.16,0.8,0.72,0.64,1.23c-0.74,2.33-2.24,3.44-3.35,3.96c1.98,3.51,1.95,6.7-0.1,9.49
						c3.23,2.81,3.96,6.23,2.13,9.97c3.1,2.12,4.02,5.55,2.72,10.23c1.95,0.93,3.28,2.23,3.97,3.85c0.84,1.99,0.73,4.41-0.35,7.39
						c5.54,2.58,7.04,8.65,5.58,13.31c-1.25,3.98-5,7.88-11.67,7.88c-1.46,0-3.07-0.19-4.82-0.6
						C132.3,392.13,128.26,393.83,124.44,393.83z"/>
				</g>
				<g>
					<path d="M111.67,322.15c0.95-0.5,2.04-0.67,3.09-0.72c1-0.02,1.98,0.11,2.93,0.37c0.3,0.07,0.49,0.37,0.42,0.67
						c-0.07,0.29-0.35,0.47-0.63,0.43c-1.6-0.17-3.39,0-4.74,0.9C111.63,324.47,110.6,322.89,111.67,322.15L111.67,322.15z"/>
				</g>
				<g>
					<path d="M111.48,333.55c1.27-0.68,2.75-0.8,4.15-0.72c0.44,0.03,0.88,0.1,1.31,0.17c0.31,0.05,0.51,0.34,0.46,0.64
						c-0.05,0.29-0.31,0.48-0.59,0.47c-1.44-0.01-3.04,0.2-4.22,1.04C111.5,335.87,110.43,334.32,111.48,333.55L111.48,333.55z"/>
				</g>
				<g>
					<path d="M111.03,345.96c1.4-0.56,2.88-0.81,4.37-0.93c0.48-0.04,0.97-0.04,1.45-0.04c0.7,0.01,0.76,1.02,0.07,1.12
						c-1.72,0.26-3.46,0.72-4.98,1.59C110.68,348.48,109.67,346.56,111.03,345.96L111.03,345.96z"/>
				</g>
				<g>
					<path d="M111.17,359.32c1.84-1.26,4.14-1.56,6.31-1.68c0.71-0.02,0.81,1,0.11,1.12c-1.73,0.32-3.52,0.81-4.94,1.86
						c-0.05,0.04-0.16,0.13-0.18,0.16C111.5,361.63,110.23,360.21,111.17,359.32L111.17,359.32z"/>
				</g>
				<g>
					<path d="M112.22,375.63c0.08-0.23,0.1-0.24,0.2-0.4c0.38-0.51,0.92-0.85,1.45-1.15c1.51-0.8,3.11-1.25,4.75-1.68
						c0.3-0.08,0.61,0.1,0.68,0.4c0.07,0.28-0.08,0.57-0.35,0.67c-0.49,0.2-0.99,0.4-1.46,0.61c-1.13,0.53-2.3,1.07-3.21,1.92
						c-0.08,0.08-0.23,0.24-0.23,0.3c0,0,0,0.01,0.01-0.02c0.01-0.03,0.01,0.01,0.05-0.11C113.71,377.41,111.9,376.89,112.22,375.63
						L112.22,375.63z"/>
				</g>
				<g>
					<path d="M136.23,326.78c-1.55-0.64-3.27-0.86-4.94-0.74c-0.31,0.02-0.58-0.22-0.59-0.53c-0.02-0.28,0.17-0.52,0.44-0.58
						c0.46-0.1,0.93-0.19,1.4-0.24c1.47-0.16,2.97-0.11,4.41,0.26C138.3,325.4,137.54,327.36,136.23,326.78L136.23,326.78z"/>
				</g>
				<g>
					<path d="M136.37,336.99c-1.67-0.45-3.42-0.71-5.15-0.86c-0.68-0.07-0.68-1.06,0-1.12c1.85-0.13,3.68-0.14,5.53,0.06
						C138.15,335.3,137.74,337.32,136.37,336.99L136.37,336.99z"/>
				</g>
				<g>
					<path d="M138.64,347.18c-1.77-0.34-3.68-0.5-5.46-0.24c-0.68,0.09-0.9-0.88-0.25-1.09c1.96-0.58,3.95-0.7,5.98-0.61
						C140.3,345.38,140.02,347.42,138.64,347.18L138.64,347.18z"/>
				</g>
				<g>
					<path d="M141.61,357.62l-5.69-0.42c-0.69-0.06-0.69-1.06,0-1.12l5.69-0.42c0.54-0.04,1.01,0.37,1.05,0.91
						C142.71,357.16,142.2,357.67,141.61,357.62L141.61,357.62z"/>
				</g>
				<g>
					<path d="M144.98,368.82c-1.48-0.36-3.07-0.38-4.58-0.12c-0.67,0.11-0.92-0.84-0.29-1.08c1.68-0.6,3.46-0.87,5.25-0.73
						C146.78,367.1,146.37,369.16,144.98,368.82L144.98,368.82z"/>
				</g>
				<g>
					<path d="M148.68,404.67c-0.4,1.39-1.48,2.08-2.46,2.08c-0.19,0-0.37-0.02-0.54-0.07c-1.09-0.3-1.95-1.54-1.39-3.6
						c0.37-1.37-0.3-2.57-1.22-4.22c-0.64-1.16-1.38-2.48-1.89-4.13c-1.01-3.28-1.67-3.74-5.39-6.28c-0.38-0.26-0.8-0.54-1.25-0.85
						c-5.19-3.58-8.41-17.09-11.12-31.15c-2.54-13.16-2.15-28.24-1.09-34.29c0.84-4.77-1.1-8.05-1.12-8.08
						c-0.28-0.47-0.13-1.07,0.33-1.35c0.46-0.28,1.06-0.14,1.35,0.32c0.09,0.16,2.34,3.91,1.37,9.45
						c-0.8,4.59-1.65,19.41,1.08,33.57c2.36,12.25,5.67,26.71,10.32,29.91c0.44,0.31,0.85,0.59,1.24,0.85
						c3.8,2.6,4.95,3.39,6.16,7.32c0.45,1.46,1.1,2.63,1.73,3.76c1.01,1.82,1.97,3.54,1.39,5.68c-0.22,0.83-0.04,1.18,0.03,1.2
						c0.1,0.03,0.43-0.13,0.59-0.67c0.57-1.98,0.77-4.31-1.58-7.95c-0.94-1.46-1.42-2.7-1.89-3.9c-0.58-1.51-1.14-2.97-2.67-4.77
						c-0.66-0.78-1.48-1.61-2.57-2.55c-0.97-0.83-1.86-1.89-2.68-3.13c-3.92-5.89-6.29-16.02-8.4-27.09c-0.2-1.06-0.4-2.13-0.6-3.2
						c-0.01-0.01-0.01-0.02-0.01-0.03c-0.46-2.93-0.77-5.62-0.98-8.08c-0.53-6.24-0.36-11.04,0-14.79c0.27-2.64,0.63-4.75,0.92-6.48
						c0.49-2.86,0.78-4.6,0.18-5.81c-0.24-0.49-0.04-1.08,0.44-1.32c0.32-0.15,0.67-0.13,0.95,0.04c0.16,0.1,0.28,0.23,0.37,0.4
						c0.52,1.05,0.61,2.21,0.49,3.62c-0.09,0.99-0.28,2.11-0.5,3.4c-0.86,5.04-2.29,13.46,0.07,28.71
						c2.65,14.29,5.49,27.5,11.03,32.27c1.67,1.43,2.79,2.68,3.6,3.81c1.15,1.59,1.68,2.95,2.19,4.29c0.45,1.16,0.88,2.26,1.71,3.54
						C149.66,399.42,149.35,402.36,148.68,404.67z"/>
				</g>
				<g class="st2">
					<ellipse class="st3" cx="118.82" cy="325.19" rx="2.29" ry="1.52"/>
				</g>
				<g class="st4">
					<ellipse class="st3" cx="117.59" cy="337.09" rx="2.29" ry="1.52"/>
				</g>
				<g class="st4">
					<path class="st3" d="M120.76,348.17c0,0.84-1.55,1.71-2.82,1.71c-1.27,0-2.29-0.68-2.29-1.52c0-0.84,1.03-1.52,2.29-1.52
						C119.21,346.83,120.76,347.33,120.76,348.17z"/>
				</g>
				<g class="st4">
					<path class="st3" d="M123.27,361.57c0,1.07-1.94,2.17-3.52,2.17s-2.87-0.86-2.87-1.93s1.29-1.93,2.87-1.93
						S123.27,360.5,123.27,361.57z"/>
				</g>
				<g class="st4">
					<path class="st3" d="M146.77,371.83c0,1.07-1.94,2.17-3.52,2.17c-1.59,0-2.87-0.86-2.87-1.93s1.29-1.93,2.87-1.93
						C144.83,370.14,146.77,370.77,146.77,371.83z"/>
				</g>
				<g class="st4">
					<path class="st3" d="M141.5,359.87c0,1.07-1.94,2.17-3.52,2.17s-2.87-0.86-2.87-1.93s1.29-1.93,2.87-1.93
						S141.5,358.81,141.5,359.87z"/>
				</g>
				<g class="st4">
					<path class="st3" d="M138.21,349.31c0,0.88-1.59,1.78-2.9,1.78c-1.3,0-2.36-0.71-2.36-1.59s1.06-1.59,2.36-1.59
						C136.62,347.92,138.21,348.43,138.21,349.31z"/>
				</g>
				<g class="st4">
					<path class="st3" d="M125.83,375.21c0.45,1.38-1.3,3.53-3.12,4.13c-1.82,0.6-3.66-0.03-4.11-1.41s0.66-2.98,2.48-3.57
						C122.89,373.75,125.38,373.83,125.83,375.21z"/>
				</g>
				<g class="st4">
					<ellipse class="st3" cx="133.52" cy="328.5" rx="2.29" ry="1.52"/>
				</g>
				<g class="st4">
					<path class="st3" d="M137.2,339c0,0.84-1.41,1.14-2.68,1.14s-2.59-1.16-2.59-2c0-0.84,1.32-1.04,2.59-1.04
						S137.2,338.16,137.2,339z"/>
				</g>
			</g>
			<g>
				<path d="M173.17,433c-0.47,0-0.97-0.06-1.49-0.18c-1.38-0.32-2.3-0.89-2.84-1.75c-0.87-1.4-0.45-3.15,0-5l0.1-0.41
					c0.58-2.4,0.58-2.4-1.9-5.56c-3.26-4.16-1.82-8.71-0.77-12.02c0.47-1.5-0.22-2.77-1.49-4.89c-1.05-1.75-2.35-3.93-2.88-6.87
					c-0.84-4.64,1.68-7.72,3.63-9.08c-0.71-2.02-0.55-4.01-0.54-4.1c0.05-0.54,0.52-0.94,1.06-0.89c0.54,0.05,0.94,0.52,0.89,1.06
					l0,0c0,0.02-0.17,2.14,0.7,3.9c0.24,0.48,0.04,1.06-0.44,1.31c-0.17,0.09-4.31,2.3-3.37,7.46c0.47,2.59,1.62,4.51,2.63,6.21
					c1.25,2.1,2.43,4.08,1.67,6.49c-1.23,3.9-1.98,7.12,0.45,10.22c2.86,3.66,3.01,4.13,2.27,7.23l-0.1,0.42
					c-0.35,1.44-0.68,2.8-0.24,3.5c0.24,0.39,0.78,0.68,1.61,0.87c1.16,0.27,2.07,0.12,2.56-0.41c0.53-0.58,0.62-1.66,0.23-2.9
					c-1.07-3.4-0.21-6.04,2.65-8.05c1.81-1.28,2.11-6.21-0.33-11.53c-0.17-0.37-0.09-0.81,0.2-1.1c0.03-0.03,3.06-3.08,4.5-6.32
					c1.38-3.12,0.55-7.49,0.55-7.53c-0.07-0.38,0.08-0.77,0.4-0.99c2.3-1.6,4.66-4.23,4.66-11.56c0-0.54,0.44-0.98,0.98-0.98
					c0,0,0,0,0,0c0.54,0,0.98,0.44,0.98,0.98c0,7.74-2.57,10.96-4.99,12.81c0.2,1.45,0.53,5.13-0.78,8.08
					c-1.24,2.8-3.46,5.37-4.43,6.42c2.43,5.71,2.2,11.37-0.6,13.34c-2.15,1.52-2.72,3.27-1.91,5.85c0.61,1.94,0.37,3.7-0.66,4.82
					C175.41,432.6,174.39,433,173.17,433z"/>
			</g>
			<g>
				<path d="M167.7,387.35c0.52,1.7,2.01,3.04,3.49,4c0.61,0.38,0.12,1.29-0.53,0.99c-1.93-0.89-3.77-2.23-4.74-4.18
					C165.22,386.84,167.2,385.95,167.7,387.35L167.7,387.35z"/>
			</g>
			<g>
				<path d="M183.94,393.73c-0.92,0.43-1.94,0.62-2.94,0.65c-0.96,0.02-1.93-0.14-2.83-0.45c-0.67-0.23-0.4-1.22,0.29-1.08
					c1.37,0.24,2.81,0.07,4.05-0.55c0.15-0.08,0.32-0.16,0.44-0.26C184.08,391.41,185.04,393.03,183.94,393.73L183.94,393.73z"/>
			</g>
			<g>
				<path d="M188.27,393.48c-1.19,0-2.47-0.28-3.76-1.01c-0.47-0.27-0.64-0.86-0.38-1.34s0.86-0.64,1.34-0.38
					c4.16,2.34,8.24-1.55,8.41-1.72c0.3-0.29,0.74-0.36,1.11-0.18c5.79,2.8,8.47-1.54,8.58-1.73c0.22-0.37,0.66-0.56,1.08-0.45
					c2.5,0.63,4.46,0.51,5.64-0.34c1.16-0.83,1.28-2.1,1.29-2.15c0.02-0.29,0.17-0.55,0.41-0.72c0.23-0.17,0.53-0.23,0.81-0.16
					c7.04,1.73,9.28-4.67,9.37-4.94c0.12-0.37,0.45-0.63,0.84-0.67c2.53-0.25,4.34-1.07,5.39-2.47c1.4-1.87,0.98-4.2,0.97-4.23
					c-0.09-0.49,0.19-0.97,0.66-1.12c1.4-0.45,2.31-1.19,2.78-2.27c0.86-1.97-0.01-4.68-0.41-5.56c-0.21-0.45-0.05-0.98,0.36-1.24
					c4.78-3.04,1.35-9.55,1.21-9.83c-0.24-0.44-0.11-0.99,0.3-1.27c1.59-1.11,2-2.85,1.27-5.33c-0.6-2.03-1.78-3.73-1.79-3.74
					c-0.21-0.3-0.23-0.69-0.07-1.01c2.78-5.37-2.04-8.84-2.25-8.98c-0.42-0.29-0.54-0.86-0.29-1.3c2.57-4.44-1.63-7.31-1.81-7.43
					c-0.4-0.27-0.55-0.79-0.35-1.23c1.32-2.87,1.16-4.41,0.79-5.2c-0.37-0.79-1.02-0.99-1.03-0.99c-0.52-0.14-0.83-0.68-0.7-1.2
					c0.14-0.52,0.68-0.83,1.2-0.7c0.16,0.04,1.55,0.45,2.3,2.06c0.73,1.55,0.57,3.61-0.46,6.13c1.86,1.58,3.98,4.81,2.15,8.78
					c2.1,1.83,4.59,5.68,2.44,10.44c0.77,1.25,2.61,4.63,2.07,7.69c-0.22,1.23-0.78,2.27-1.68,3.1c1.34,2.96,2.32,8.15-1.58,11.21
					c0.46,1.31,1.16,4.04,0.13,6.4c-0.61,1.38-1.69,2.41-3.23,3.07c0.05,1.11-0.08,3.13-1.4,4.91c-1.3,1.74-3.38,2.82-6.19,3.2
					c-0.82,1.8-3.78,6.95-10.49,5.83c-0.26,0.75-0.77,1.73-1.82,2.49c-1.58,1.15-3.81,1.42-6.65,0.82
					c-1.13,1.4-4.46,4.57-10.09,2.17C193.7,391.75,191.24,393.48,188.27,393.48z"/>
			</g>
			<g>
				<path d="M188.28,385.24c-0.48,0-0.89-0.35-0.97-0.83c-0.08-0.54,0.28-1.04,0.82-1.12c23.36-3.66,30.85-11,35.1-17.69
					c5.49-8.66,3.09-22.97,0.8-32.97c-2.76-12.06-5.41-16.86-5.43-16.9c-0.27-0.47-0.1-1.07,0.37-1.34c0.47-0.27,1.07-0.1,1.34,0.37
					c0.11,0.2,2.8,5.03,5.64,17.43c2.37,10.35,4.83,25.18-1.05,34.46c-6.36,10.02-17.26,15.58-36.45,18.58
					C188.39,385.24,188.34,385.24,188.28,385.24z"/>
			</g>
			<g>
				<path d="M230.01,322.08c-0.79,0.01-1.6,0.23-2.31,0.58c-0.26,0.12-0.5,0.29-0.73,0.46c-0.25,0.18-0.6,0.12-0.78-0.13
					c-0.38-0.58,0.41-1.07,0.77-1.43c0.82-0.67,1.77-1.16,2.81-1.42c0.61-0.2,1.27,0.08,1.41,0.74
					C231.33,321.55,230.69,322.21,230.01,322.08L230.01,322.08z"/>
			</g>
			<g>
				<path d="M231.85,330.81c-0.85-0.19-1.79-0.06-2.64,0.16c-0.56,0.09-1.32,0.74-1.67,0.01c-0.1-0.25,0-0.53,0.21-0.68
					c0.94-0.63,1.99-1.1,3.11-1.32c0.42-0.08,0.83-0.14,1.26-0.11C233.41,329.09,233.14,330.96,231.85,330.81L231.85,330.81z"/>
			</g>
			<g>
				<path d="M234.3,341.03c-1.08-0.37-2.31-0.3-3.43-0.06c-0.67,0.16-0.99-0.77-0.38-1.06c1.33-0.61,2.83-0.98,4.3-0.78
					C236.05,339.5,235.57,341.32,234.3,341.03L234.3,341.03z"/>
			</g>
			<g>
				<path d="M234.21,351.28c-0.83-0.78-2.08-1.11-3.22-1.14c-0.67-0.03-0.73-0.99-0.08-1.11c1.49-0.28,3.12-0.12,4.44,0.67
					C236.49,350.46,235.31,352.11,234.21,351.28L234.21,351.28z"/>
			</g>
			<g>
				<path d="M229.36,371c-0.18-1.57-0.56-3.16-1.1-4.65c-0.23-0.64,0.68-1.06,1.02-0.47c0.86,1.51,1.52,3.08,2.01,4.75
					C231.61,372.01,229.57,372.4,229.36,371L229.36,371z"/>
			</g>
			<g>
				<path d="M222.12,378.62c0.16-1.55,0.18-3.33-0.48-4.74c-0.29-0.62,0.57-1.12,0.97-0.56c1.09,1.64,1.36,3.52,1.48,5.42
					C224.05,380.15,221.98,380.03,222.12,378.62L222.12,378.62z"/>
			</g>
			<g>
				<path d="M193.69,389.29c0.29-0.42,0.51-0.9,0.69-1.38c0.19-0.5,0.32-1.03,0.39-1.57c0.03-0.32,0.32-0.54,0.64-0.5
					c0.26,0.04,0.46,0.25,0.48,0.5c0.13,1.2,0,2.44-0.37,3.59c-0.03,0.12-0.12,0.32-0.17,0.45c-0.21,0.52-0.81,0.76-1.32,0.55
					C193.38,390.67,193.2,389.78,193.69,389.29L193.69,389.29z"/>
			</g>
			<g>
				<path d="M203.57,387.12c0.82-1.19,1.23-2.69,1.01-4.13c-0.04-0.31,0.18-0.59,0.49-0.62c0.27-0.03,0.52,0.14,0.6,0.39
					c0.13,0.43,0.25,0.88,0.29,1.33c0.13,1.25-0.09,2.53-0.55,3.69c-0.05,0.13-0.13,0.29-0.2,0.44
					C204.47,389.5,202.66,388.28,203.57,387.12L203.57,387.12z"/>
			</g>
			<g>
				<path d="M211.6,384.07c0.4-1.42,0.71-2.9,0.86-4.37c0.03-0.31,0.3-0.54,0.62-0.51c0.27,0.03,0.48,0.25,0.51,0.51
					c0.07,0.79,0.09,1.58,0.07,2.37c-0.01,0.8-0.05,1.57-0.13,2.38C213.31,385.85,211.26,385.46,211.6,384.07L211.6,384.07z"/>
			</g>
			<g>
				<g>
					<path d="M159.39,328.7c-0.55,0-1.09-0.05-1.62-0.15c-2.92-0.56-4.83-2.49-5.68-3.55c-1.82,0.77-3.45,1.08-4.92,1.08
						c-5.11,0-8.1-3.81-9.12-5.41c-3.51,0.78-6.44,0.39-8.71-1.16c-2.42-1.65-3.43-4.19-3.84-5.69c-3.96,1.39-7.96,0.88-11.12-1.48
						c-3.34-2.49-5.25-6.73-4.76-10.56c0.42-3.29,2.48-5.85,5.81-7.25l2.58-2.28c1.77-4.31,6.57-7.25,11.25-6.88
						c4.39,0.35,7.59,3.41,8.89,8.44c2.98-0.15,7.63,0.93,9.13,5.89c2.88-0.54,7.57-0.22,10.23,3.85c2.01-1.03,4.29-1.35,6.39-0.88
						c1.91,0.43,3.58,1.48,4.91,3.09c1.59-1.99,3.93-3.18,6.49-3.25c2.39-0.06,4.63,0.88,6.22,2.58c2.23-3.58,6.17-3.92,8.57-3.48
						c3.26-4.64,7.76-4.37,9.54-4.05c2.14-3.15,5.41-5,9.74-5.51c1.33-5.19,6.46-7.41,10.82-6.84c4.2,0.55,8.22,3.69,7.93,9.48
						l2.34,2.96c3.74,2.86,4.88,8.12,2.71,12.55c-2.02,4.13-7.08,7.71-15.28,5.72c-2.86,5.04-10.37,4.16-12.62,3.77
						c-3.74,4.68-8.99,3.89-11.94,2.51c-3.56,5.24-11.08,3.96-13.08,3.52c-5.75,4.15-12.1,1.51-14.03,0.53
						C163.87,327.87,161.59,328.7,159.39,328.7z M152.41,322.79c0.33,0,0.65,0.17,0.84,0.47c0.02,0.03,1.77,2.78,4.91,3.37
						c2.27,0.43,4.76-0.36,7.39-2.32c0.32-0.24,0.75-0.26,1.09-0.05c0.28,0.17,7.02,4.11,12.78-0.37c0.24-0.19,0.56-0.25,0.86-0.17
						c0.09,0.02,8.84,2.34,11.8-3.27c0.13-0.24,0.34-0.41,0.6-0.49c0.26-0.07,0.54-0.04,0.77,0.1c0.26,0.15,6.47,3.74,10.58-2.02
						c0.23-0.32,0.63-0.47,1.02-0.39c0.09,0.02,9.16,2,11.39-3.26c0.19-0.45,0.69-0.69,1.17-0.56c7.51,2.1,12.04-0.94,13.78-4.49
						c1.81-3.69,0.9-7.88-2.22-10.19c-0.07-0.05-0.13-0.11-0.19-0.18l-2.65-3.36c-0.15-0.2-0.23-0.44-0.21-0.69
						c0.42-5.08-3.08-7.35-6.2-7.76c-3.75-0.49-7.98,1.4-8.79,5.97c-0.08,0.44-0.44,0.77-0.89,0.81c-4.36,0.35-7.42,2.07-9.33,5.24
						c-0.24,0.39-0.72,0.57-1.15,0.42c-0.2-0.07-5.13-1.61-8.41,3.64c-0.23,0.37-0.68,0.54-1.1,0.42c-0.23-0.06-5.61-1.49-7.66,3.62
						c-0.14,0.34-0.46,0.58-0.82,0.61c-0.37,0.03-0.72-0.14-0.92-0.46c-1.19-1.91-3.25-3.01-5.51-2.96
						c-2.35,0.06-4.46,1.36-5.65,3.48c-0.17,0.3-0.49,0.49-0.83,0.5c-0.35,0.01-0.67-0.17-0.86-0.46c-1.16-1.85-2.68-3-4.53-3.41
						c-1.9-0.42-4.01-0.01-5.78,1.13c-0.23,0.15-0.52,0.19-0.78,0.12c-0.27-0.07-0.49-0.25-0.62-0.5c-2.79-5.4-9.17-3.59-9.44-3.51
						c-0.26,0.08-0.55,0.04-0.79-0.1c-0.24-0.14-0.4-0.38-0.46-0.65c-1.22-6.15-7.79-5.27-8.07-5.23c-0.51,0.07-1-0.26-1.1-0.77
						c-1.31-6.33-5.16-7.57-7.33-7.74c-3.94-0.32-7.96,2.2-9.35,5.85c-0.06,0.15-0.15,0.28-0.27,0.38l-2.88,2.54
						c-0.08,0.07-0.18,0.13-0.28,0.17c-3.5,1.41-4.52,3.9-4.75,5.75c-0.41,3.15,1.19,6.65,3.98,8.73c2.91,2.17,6.56,2.46,10.27,0.82
						c0.29-0.13,0.61-0.11,0.88,0.04c0.27,0.15,0.45,0.43,0.49,0.74c0,0.03,0.47,3.64,3.27,5.54c1.93,1.31,4.56,1.55,7.81,0.7
						c0.45-0.12,0.92,0.1,1.13,0.52c0.16,0.32,4.05,7.86,12.59,3.78C152.13,322.82,152.27,322.79,152.41,322.79z"/>
				</g>
				<g>
					<path d="M138.38,294.86c-0.16,1.74-0.76,3.42-1.66,4.91c-0.29,0.49-0.63,0.94-0.99,1.38c-0.19,0.24-0.55,0.28-0.79,0.08
						c-0.23-0.19-0.27-0.52-0.11-0.75c0.26-0.43,0.51-0.87,0.71-1.33c0.59-1.34,0.92-2.83,0.87-4.28
						C136.36,293.45,138.44,293.44,138.38,294.86L138.38,294.86z"/>
				</g>
				<g>
					<path d="M147.51,300.58c0.3,1.53,0.04,3.11-0.46,4.56c-0.16,0.46-0.36,0.9-0.57,1.34c-0.13,0.28-0.46,0.4-0.74,0.27
						c-0.25-0.12-0.38-0.4-0.3-0.66c0.49-1.57,0.73-3.35,0.21-4.93C145.29,299.91,147.08,299.35,147.51,300.58L147.51,300.58z"/>
				</g>
				<g>
					<path d="M158.07,304.5c0.29,0.93,0.37,1.89,0.32,2.86c-0.05,0.94-0.3,1.87-0.71,2.71c-0.13,0.28-0.46,0.4-0.74,0.27
						c-0.27-0.12-0.38-0.43-0.29-0.7c0.43-1.44,0.26-3.04-0.39-4.39C155.54,303.91,157.62,303.03,158.07,304.5L158.07,304.5z"/>
				</g>
				<g>
					<path d="M169.75,307.09c0.49,1.71,0.56,3.55,0.09,5.26c-0.18,0.65-1.15,0.48-1.1-0.19c0.15-1.48-0.17-3.01-0.8-4.34
						C167.26,306.5,169.3,305.66,169.75,307.09L169.75,307.09z"/>
				</g>
				<g>
					<path d="M182.49,306.33c0.84,1.48,1.09,3.3,0.68,4.95c-0.16,0.65-1.13,0.52-1.11-0.14c0.08-1.3-0.33-2.66-1.16-3.66
						C180.17,306.41,181.7,305.3,182.49,306.33L182.49,306.33z"/>
				</g>
				<g>
					<path d="M191.22,302c0.87,1.03,1.51,2.22,1.92,3.49c0.14,0.42,0.23,0.85,0.3,1.28c0.05,0.31-0.15,0.6-0.46,0.65
						c-0.27,0.05-0.53-0.11-0.62-0.36c-0.49-1.41-1.38-2.69-2.51-3.65C188.7,302.47,190.23,300.88,191.22,302L191.22,302z"/>
				</g>
				<g>
					<path d="M200.51,297.77c1.3,0.79,2.37,1.97,2.91,3.4c0.19,0.47,0.27,0.97,0.33,1.45c0.04,0.31-0.18,0.58-0.49,0.62
						c-0.3,0.04-0.56-0.17-0.62-0.45c-0.37-1.49-1.57-2.67-2.96-3.24C198.22,299.04,199.18,296.99,200.51,297.77L200.51,297.77z"/>
				</g>
				<g>
					<path d="M210.56,292.04c1.22,0.67,2.28,1.63,2.98,2.84c0.24,0.4,0.4,0.84,0.53,1.28c0.09,0.3-0.08,0.61-0.38,0.7
						c-0.26,0.08-0.54-0.05-0.66-0.28c-0.61-1.31-1.88-2.25-3.22-2.72C208.34,293.41,209.2,291.32,210.56,292.04L210.56,292.04z"/>
				</g>
				<g>
					<path d="M216.43,314.43c0.7-1.76,0.93-3.71,0.75-5.59c-0.05-0.69,0.94-0.84,1.11-0.17c0.5,2.1,0.52,4.32,0,6.42
						C217.86,316.45,215.9,315.75,216.43,314.43L216.43,314.43z"/>
				</g>
				<g>
					<path d="M203.97,318.15c0.76-1.34,0.98-2.97,0.75-4.5c-0.08-0.68,0.89-0.88,1.09-0.23c0.56,1.78,0.58,3.75-0.06,5.52
						C205.25,320.21,203.39,319.4,203.97,318.15L203.97,318.15z"/>
				</g>
				<g>
					<path d="M192.04,320.53c0.36-0.71,0.48-1.56,0.47-2.37c0-0.3-0.05-0.6-0.09-0.9c-0.05-0.31,0.16-0.59,0.47-0.64
						c0.26-0.04,0.51,0.11,0.61,0.35c0.41,0.98,0.61,2.05,0.55,3.12c-0.02,0.39-0.06,0.78-0.17,1.16
						C193.36,322.44,191.6,321.75,192.04,320.53L192.04,320.53z"/>
				</g>
				<g>
					<path d="M179.29,324c0.6-0.57,1.04-1.36,1.23-2.17c0.08-0.3,0.1-0.61,0.11-0.92c0.02-0.31,0.28-0.55,0.59-0.53
						c0.27,0.01,0.48,0.21,0.52,0.47c0.06,0.37,0.11,0.75,0.1,1.14c-0.03,1.18-0.41,2.35-1.09,3.32c0,0-0.19,0.25-0.19,0.25
						c-0.34,0.46-0.99,0.55-1.45,0.2C178.5,325.31,178.61,324.31,179.29,324L179.29,324z"/>
				</g>
				<g>
					<path d="M165.4,324.43c0.46-0.38,0.8-1.01,0.99-1.61c0.08-0.23,0.13-0.48,0.17-0.72c0.05-0.31,0.34-0.51,0.65-0.46
						c0.63,0.13,0.48,0.9,0.5,1.39c-0.03,0.85-0.26,1.7-0.68,2.45C166.33,326.81,164.47,325.61,165.4,324.43L165.4,324.43z"/>
				</g>
				<g>
					<path d="M151.66,323.14c0.7-0.67,1.19-1.54,1.62-2.42c0.28-0.59,1.18-0.3,1.07,0.34c-0.25,1.4-0.72,2.83-1.62,3.97
						c-0.38,0.54-1.13,0.68-1.67,0.3C150.13,324.69,150.56,323.21,151.66,323.14L151.66,323.14z"/>
				</g>
				<g>
					<path d="M138.12,318.64c0.8-0.27,1.57-0.72,2.18-1.31c0.22-0.21,0.39-0.45,0.55-0.7c0.17-0.26,0.52-0.33,0.78-0.16
						c0.59,0.42-0.04,1.22-0.28,1.68c-0.56,0.86-1.31,1.56-2.16,2.12c-0.1,0.07-0.26,0.16-0.38,0.23
						C137.43,321.16,136.64,319.04,138.12,318.64L138.12,318.64z"/>
				</g>
				<g>
					<path d="M125.7,311.63c1.06-0.52,2.13-1.23,2.93-2.1c0.21-0.24,0.57-0.27,0.81-0.05c0.2,0.18,0.24,0.47,0.11,0.7
						c-0.54,0.93-1.24,1.71-2.01,2.43c-0.26,0.24-0.52,0.47-0.83,0.71C125.53,314.14,124.42,312.3,125.7,311.63L125.7,311.63z"/>
				</g>
				<g>
					<path d="M168.25,320.51c-7.18,0-12.75-1.19-17.45-2.51c-4.45-1.25-8.69-3.19-12.59-5.76l0,0c-3.98-2.62-7.63-5.46-10.84-7.96
						c-4.46-3.47-8.32-6.46-11.81-8.02c-0.21-0.09-0.38-0.26-0.48-0.47c-0.93-1.91-0.27-3.32,0.66-3.99
						c1.08-0.78,2.62-0.69,3.65,0.19c1.09,0.52,7.97,3.88,14.33,9.61c4.21,3.79,15.84,12.66,32.74,13.18
						c15.02,0.46,31.71-6.29,38.7-10.65c7.29-4.55,14.83-9.26,21.84-10.11c0.04-0.01,0.09-0.01,0.14-0.01
						c0.21,0,2.05,0.08,3.08,1.42c0.44,0.57,0.88,1.57,0.5,3.15c-0.1,0.42-0.47,0.72-0.9,0.75c-0.05,0-5.14,0.37-13.48,4.67
						c-2.09,1.08-4.21,2.37-6.46,3.73c-6.73,4.08-15.11,9.16-27.96,11.49C176.78,320.14,172.26,320.51,168.25,320.51z M139.3,310.6
						c3.73,2.46,7.78,4.31,12.04,5.51c7.11,2,16.26,3.7,30.24,1.17c12.5-2.26,20.36-7.03,27.29-11.23c2.28-1.38,4.43-2.68,6.58-3.79
						c6.9-3.56,11.65-4.53,13.46-4.79c0-0.34-0.07-0.62-0.23-0.83c-0.37-0.48-1.17-0.64-1.52-0.66c-6.56,0.83-13.88,5.4-20.96,9.82
						c-7.22,4.51-23.12,10.97-38.22,10.98c-0.53,0-1.05-0.01-1.58-0.02c-17.55-0.54-29.62-9.75-33.99-13.68
						c-6.56-5.9-13.9-9.31-13.98-9.35c-0.1-0.05-0.19-0.11-0.27-0.19c-0.39-0.38-0.95-0.36-1.27-0.13
						c-0.41,0.29-0.31,0.84-0.18,1.24c3.61,1.69,7.44,4.67,11.86,8.1C131.77,305.21,135.38,308.02,139.3,310.6L139.3,310.6z"/>
				</g>
				<g class="st4">
					<path class="st3" d="M125.93,292.36c-1.1-0.84-0.94-2.56,0.31-3.17c1.04-0.51,2.48-0.84,4.14-0.22
						c3.47,1.28,5.21,5.03,3.6,6.41C132.83,296.37,128.33,294.2,125.93,292.36z"/>
				</g>
				<g class="st4">
					<path class="st3" d="M139.66,298.93c-0.27-1.09,0.84-2.04,1.87-1.6c1.36,0.58,2.91,1.71,3.28,3.86
						c0.7,4.05-2.38,2.59-3.84,0.56C140.23,300.72,139.87,299.78,139.66,298.93z"/>
				</g>
				<g class="st4">
					<path class="st3" d="M149.52,304.97c-0.51-1,0.35-2.18,1.46-1.98c1.46,0.25,3.22,0.99,4.08,3c1.61,3.78-1.72,3.06-3.61,1.42
						C150.49,306.58,149.92,305.75,149.52,304.97z"/>
				</g>
				<g class="st4">
					<path class="st3" d="M160.53,307.85c-0.77-0.81-0.28-2.19,0.84-2.31c1.47-0.17,3.37,0.05,4.75,1.74
						c2.6,3.18-0.79,3.42-3.06,2.38C161.91,309.12,161.13,308.48,160.53,307.85z"/>
				</g>
				<g class="st4">
					<path class="st3" d="M173.87,307.85c-0.77-0.81-0.28-2.19,0.84-2.31c1.47-0.17,3.37,0.05,4.75,1.74
						c2.6,3.18-0.79,3.42-3.06,2.38C175.25,309.12,174.48,308.48,173.87,307.85z"/>
				</g>
				<g class="st4">
					<path class="st3" d="M184.07,306.65c0,0,1.15-2.11,3.07-2.36c1.92-0.25,2.94-0.09,2.94,1.44
						C190.08,307.26,183.19,309.01,184.07,306.65z"/>
				</g>
				<g class="st4">
					<path class="st3" d="M194.34,304.37c0,0-1.74-1.41-0.17-2.98c1.57-1.57,5.06-1.8,5.8-0.44
						C200.71,302.32,197.16,306.1,194.34,304.37z"/>
				</g>
				<g class="st4">
					<path class="st3" d="M204.97,299.62c0,0-1.8-1.73,0.42-3.28s4.11-1.06,4.57,0.24C210.41,297.87,207.23,301.56,204.97,299.62z"
						/>
				</g>
				<g class="st4">
					<path class="st3" d="M217.39,294.13c-1.96,0.53-3.91-1.12-3.63-3.13c0.09-0.63,0.41-1.27,1.15-1.8
						c2.3-1.64,5.03-1.48,6.36-0.15C222.24,290.02,220.05,293.4,217.39,294.13z"/>
				</g>
			</g>
			<g class="st4">
				<path class="st3" d="M168.11,391.95c-0.73-0.44-1.66,0.1-1.64,0.95c0.02,0.73,0.36,1.68,1.46,2.78c2.64,2.64,6.3,3.8,8.26,2.53
					c1.96-1.27,2.34-3.18-1.31-3.61C172.37,394.29,169.6,392.83,168.11,391.95z"/>
			</g>
			<g class="st4">
				<path class="st3" d="M171.3,408.41c-1.1-0.73-2.57,0.15-2.42,1.47c0.03,0.26,0.1,0.55,0.23,0.88c0.96,2.37,5.61,2.53,5.61,1.08
					C174.73,410.84,172.62,409.29,171.3,408.41z"/>
			</g>
		</g>
	</g>
</g>
</svg>
